<svg width="90" height="14" fill="none" xmlns="http://www.w3.org/2000/svg"><path d="M10.064 5.528L1.948.363a.973.973 0 00-1.497.823v11.063a.97.97 0 001.542.785l8.117-5.898a.966.966 0 00-.046-1.608zm19.662 0L21.61.363a.973.973 0 00-1.497.823v11.063a.97.97 0 001.543.785l8.116-5.898a.972.972 0 00-.046-1.608zm19.66 0L41.27.363a.973.973 0 00-1.497.823v11.063a.97.97 0 001.542.785l8.116-5.898a.972.972 0 00-.045-1.608zm19.661 0L60.932.363a.973.973 0 00-1.498.823v11.063a.97.97 0 001.543.785l8.116-5.898a.972.972 0 00-.046-1.608zm19.663 0L80.592.363a.973.973 0 00-1.497.823v11.063a.97.97 0 001.542.785l8.116-5.898a.972.972 0 00-.045-1.608z" fill="#DCE0E2"/></svg>