<svg width="99" height="63" fill="none" xmlns="http://www.w3.org/2000/svg"><path d="M98.796 61.409a1.017 1.017 0 00-.985-.876c-1.795-.029-6.16-.608-10.56-5.008-6.226-6.224-9.158-7.317-13.009-7.317-4.234 0-8.853 2.287-13.008 6.441-4.206 4.205-7.448 5.84-11.567 5.84-4.213 0-8.506-3.661-10.692-5.84-2.23-2.229-7.818-6.441-13.008-6.441-4.473 0-8.802 3.264-12.284 5.884l-.615.463a47.1 47.1 0 00-1.918 1.542c-2.541 2.12-4.96 4.132-9.679 4.371a1.022 1.022 0 00-.962 1.013c0 .587.492 1.05 1.078 1.02 5.4-.282 8.296-2.699 10.865-4.841.623-.521 1.21-1.013 1.832-1.477l.622-.47c3.236-2.439 7.26-5.471 11.054-5.471 3.713 0 8.73 3.01 11.567 5.84 2.404 2.403 7.181 6.441 12.133 6.441 4.661 0 8.433-1.867 13.007-6.44 3.772-3.772 7.876-5.841 11.568-5.841 2.924 0 5.313.47 11.567 6.723 4.887 4.893 9.794 5.58 11.98 5.61a1.009 1.009 0 001.014-1.166zm0-23.826a1.017 1.017 0 00-.985-.876c-1.795-.029-6.16-.608-10.56-5.008-6.226-6.224-9.158-7.317-13.009-7.317-4.234 0-8.853 2.287-13.008 6.441-4.206 4.205-7.448 5.841-11.567 5.841-4.213 0-8.506-3.662-10.692-5.84-2.23-2.23-7.818-6.442-13.008-6.442-4.473 0-8.802 3.264-12.284 5.884l-.615.463a47.1 47.1 0 00-1.918 1.542c-2.541 2.12-4.96 4.132-9.679 4.371a1.021 1.021 0 00-.962 1.014c0 .586.492 1.049 1.078 1.02 5.4-.282 8.296-2.7 10.865-4.842.623-.521 1.21-1.013 1.832-1.476l.622-.47c3.236-2.44 7.26-5.472 11.054-5.472 3.713 0 8.73 3.01 11.567 5.84 2.404 2.403 7.181 6.442 12.133 6.442 4.661 0 8.433-1.868 13.007-6.442 3.772-3.77 7.876-5.84 11.568-5.84 2.924 0 5.313.47 11.567 6.723 4.887 4.886 9.794 5.573 11.98 5.61a1.009 1.009 0 001.014-1.166zM1.587 14.857c5.4-.282 8.295-2.7 10.865-4.841.622-.521 1.209-1.014 1.831-1.477l.623-.47c3.236-2.44 7.26-5.472 11.053-5.472 3.714 0 8.73 3.011 11.568 5.84 2.403 2.404 7.18 6.442 12.132 6.442 4.662 0 8.433-1.867 13.008-6.441 3.771-3.77 7.876-5.84 11.567-5.84 2.925 0 5.314.47 11.568 6.723 4.886 4.885 9.794 5.573 11.98 5.609a1.015 1.015 0 001.013-1.165 1.017 1.017 0 00-.984-.876c-1.795-.03-6.16-.608-10.561-5.008C81.024 1.656 78.093.563 74.242.563c-4.235 0-8.853 2.288-13.008 6.442-4.206 4.205-7.449 5.84-11.568 5.84-4.213 0-8.505-3.662-10.691-5.84-2.23-2.23-7.818-6.442-13.008-6.442-4.474 0-8.803 3.265-12.285 5.885l-.615.463c-.666.5-1.303 1.027-1.918 1.541-2.54 2.12-4.959 4.133-9.678 4.372a1.022 1.022 0 00-.963 1.013c0 .586.5 1.05 1.079 1.02z" fill="#FFD66B"/></svg>