<svg width="57" height="57" fill="none" xmlns="http://www.w3.org/2000/svg"><path d="M2.829.102a2.448 2.448 0 00-2.45 2.45 2.448 2.448 0 002.45 2.45 2.448 2.448 0 002.45-2.45 2.448 2.448 0 00-2.45-2.45zm17.165 0a2.448 2.448 0 00-2.45 2.45 2.448 2.448 0 002.45 2.45 2.448 2.448 0 002.45-2.45 2.448 2.448 0 00-2.45-2.45zm17.166 0a2.448 2.448 0 00-2.45 2.45 2.448 2.448 0 002.45 2.45 2.448 2.448 0 002.45-2.45 2.448 2.448 0 00-2.45-2.45zm17.165 4.906a2.448 2.448 0 002.45-2.45 2.448 2.448 0 00-2.45-2.45 2.448 2.448 0 00-2.45 2.45 2.448 2.448 0 002.45 2.45zM2.828 17.265a2.448 2.448 0 00-2.45 2.45 2.448 2.448 0 002.45 2.45 2.448 2.448 0 002.45-2.45 2.444 2.444 0 00-2.45-2.45zm17.166 0a2.448 2.448 0 00-2.45 2.45 2.448 2.448 0 002.45 2.45 2.448 2.448 0 002.45-2.45 2.448 2.448 0 00-2.45-2.45zm17.166 0a2.448 2.448 0 00-2.45 2.45 2.448 2.448 0 002.45 2.45 2.448 2.448 0 002.45-2.45 2.448 2.448 0 00-2.45-2.45zm17.165 0a2.448 2.448 0 00-2.45 2.45 2.448 2.448 0 002.45 2.45 2.448 2.448 0 002.45-2.45 2.448 2.448 0 00-2.45-2.45zM2.828 34.427a2.448 2.448 0 00-2.45 2.45 2.448 2.448 0 002.45 2.45 2.448 2.448 0 002.45-2.45 2.444 2.444 0 00-2.45-2.45zm17.166 0a2.448 2.448 0 00-2.45 2.45 2.448 2.448 0 002.45 2.45 2.448 2.448 0 002.45-2.45 2.448 2.448 0 00-2.45-2.45zm17.166 0a2.448 2.448 0 00-2.45 2.45 2.448 2.448 0 002.45 2.45 2.448 2.448 0 002.45-2.45 2.448 2.448 0 00-2.45-2.45zm17.165 0a2.448 2.448 0 00-2.45 2.45 2.448 2.448 0 002.45 2.45 2.448 2.448 0 002.45-2.45 2.448 2.448 0 00-2.45-2.45zM2.828 51.583a2.448 2.448 0 00-2.45 2.45 2.448 2.448 0 002.45 2.45 2.448 2.448 0 002.45-2.45 2.448 2.448 0 00-2.45-2.45zm17.166 0a2.448 2.448 0 00-2.45 2.45 2.448 2.448 0 002.45 2.45 2.448 2.448 0 002.45-2.45 2.452 2.452 0 00-2.45-2.45zm17.166 0a2.448 2.448 0 00-2.45 2.45 2.448 2.448 0 002.45 2.45 2.448 2.448 0 002.45-2.45 2.452 2.452 0 00-2.45-2.45zm17.165 0a2.448 2.448 0 00-2.45 2.45 2.448 2.448 0 002.45 2.45 2.448 2.448 0 002.45-2.45 2.452 2.452 0 00-2.45-2.45z" fill="#005AAA"/></svg>