<svg width="56" height="56" fill="none" xmlns="http://www.w3.org/2000/svg"><path opacity=".1" d="M40.743 28c8.426 0 15.57 7.307 11.202 14.513A28 28 0 116.1 10.555c5.25-6.59 14.577-2.417 17.492 5.489l.43 1.165A16.499 16.499 0 0039.5 28h1.242z" fill="#005AAA"/><path d="M17.333 17.334h21.334c1.466 0 2.666 1.2 2.666 2.666v16c0 1.467-1.2 2.667-2.666 2.667H17.333A2.674 2.674 0 0114.667 36V20c0-1.466 1.2-2.666 2.666-2.666z" fill="#005AAA"/><path d="M41.333 20L28 29.333 14.667 20" stroke="#FFD66B" stroke-width="2" stroke-linecap="round" stroke-linejoin="round"/></svg>