<svg width="56" height="56" fill="none" xmlns="http://www.w3.org/2000/svg"><path opacity=".1" d="M28 42.256c0 7.59-6.505 14.016-13.2 10.438A28 28 0 0136.129 1.206c7.264 2.203 7.32 11.346 1.952 16.714L33.8 22.2a19.8 19.8 0 00-5.799 14v6.055z" fill="#005AAA"/><path d="M41.333 34.56v4a2.666 2.666 0 01-2.906 2.667 26.387 26.387 0 01-11.507-4.094 25.999 25.999 0 01-8-8 26.386 26.386 0 01-4.093-11.56 2.667 2.667 0 012.653-2.906h4a2.667 2.667 0 012.667 2.293 17.16 17.16 0 00.933 3.747 2.667 2.667 0 01-.6 2.813l-1.693 1.693a21.332 21.332 0 008 8l1.693-1.693a2.666 2.666 0 012.813-.6 17.16 17.16 0 003.747.933 2.666 2.666 0 012.293 2.707z" fill="#005AAA"/><path d="M32.067 18.667a6.667 6.667 0 015.266 5.266m-5.266-10.6a12 12 0 0110.6 10.587" stroke="#FFD66B" stroke-width="2" stroke-linecap="round" stroke-linejoin="round"/></svg>