<svg width="80" height="80" fill="none" xmlns="http://www.w3.org/2000/svg"><path d="M69.6 39.5H52.9c-1.6 0-2.9 1.3-2.9 2.9v33.2c0 1.6 1.3 2.9 2.9 2.9h16.8c1.6 0 2.9-1.3 2.9-2.9V42.4c-.1-1.6-1.4-2.9-3-2.9z" fill="#3D8AFF"/><path d="M72.5 46.2H50v22.5h22.5V46.2z" fill="#3D8AFF"/><path d="M69.6 37.9H52.9c-2.5 0-4.4 2-4.4 4.4v33.2c0 2.5 2 4.4 4.4 4.4h16.8c2.5 0 4.4-2 4.4-4.4V42.3c0-2.4-2-4.4-4.5-4.4zm-16.7 3.2h16.8c.7 0 1.3.6 1.3 1.3v2.3H51.6v-2.3c0-.8.5-1.3 1.3-1.3zm18 26.1H51.6V47.8H71v19.4h-.1zm-1.3 9.6H52.9c-.7 0-1.3-.6-1.3-1.3v-5.2H71v5.2c-.1.8-.6 1.3-1.4 1.3z" fill="#005AAA"/><path d="M61.6 72h-1.2c-.9 0-1.6.7-1.6 1.6 0 .9.7 1.6 1.6 1.6h1.2c.9 0 1.6-.7 1.6-1.6 0-.9-.7-1.6-1.6-1.6zm-22.7 1.3c-14.7 0-27.1-10.5-29.4-25-.1-.9-1-1.4-1.8-1.3-.9.1-1.4 1-1.3 1.8 1.3 7.6 5.2 14.6 11.1 19.7 6 5.1 13.6 7.9 21.5 7.9.9 0 1.6-.7 1.6-1.6 0-.9-.8-1.5-1.7-1.5zM36.2 9.2c14.7 0 27.1 10.5 29.4 25 .1.9 1 1.4 1.8 1.3.9-.1 1.4-1 1.3-1.8-1.2-7.7-5.1-14.6-11-19.7-6-5.1-13.6-7.9-21.5-7.9-.9 0-1.6.7-1.6 1.6 0 .9.7 1.5 1.6 1.5z" fill="#005AAA"/><path d="M27.5 1.6H10.7c-1.6 0-2.9 1.3-2.9 2.9v33.2c0 1.6 1.3 2.9 2.9 2.9h16.8c1.6 0 2.9-1.3 2.9-2.9V4.4c-.1-1.5-1.4-2.8-2.9-2.8z" fill="#3D8AFF"/><path d="M30.3 8.3H7.8v22.5h22.5V8.3z" fill="#FFD66B"/><path d="M27.1 0H10.4C7.9 0 5.9 2 5.9 4.4v33.2c0 2.5 2 4.4 4.4 4.4h16.8c2.5 0 4.4-2 4.4-4.4V4.4C31.6 2 29.6 0 27.1 0zM10.4 3.2h16.8c.7 0 1.3.6 1.3 1.3v2.3H9.1V4.4c0-.7.5-1.2 1.3-1.2zm18 26H9.1V9.9h19.4l-.1 19.3zm-1.3 9.7H10.4c-.7 0-1.3-.6-1.3-1.3v-5.2h19.4v5.2c-.1.8-.6 1.3-1.4 1.3z" fill="#005AAA"/><path d="M19.9 34h-1.2c-.9 0-1.6.7-1.6 1.6 0 .9.7 1.6 1.6 1.6h1.2c.9 0 1.6-.7 1.6-1.6 0-.9-.7-1.6-1.6-1.6z" fill="#FFD66B"/></svg>