<svg width="80" height="80" fill="none" xmlns="http://www.w3.org/2000/svg"><path d="M12 12h32a8 8 0 018 8v40H12a8 8 0 01-8-8V20a8 8 0 018-8z" fill="#3D8AFF"/><path d="M52 28h11.056a8 8 0 017.152 4.424l4.944 9.888A7.944 7.944 0 0176 45.888V52a8 8 0 01-8 8H52V28z" fill="#005AAA"/><path d="M52 44h15.408a1.6 1.6 0 001.432-2.312l-3.736-7.48A4 4 0 0061.528 32H52v12z" fill="#fff"/><path d="M33.688 26.84l-4.976-2.48a1.6 1.6 0 00-1.424 0l-4.976 2.48A1.6 1.6 0 0120 25.408V12h16v13.408a1.6 1.6 0 01-2.312 1.432zM64 68a8 8 0 100-16 8 8 0 000 16z" fill="#FFD66B"/><path d="M64 62a2 2 0 100-4 2 2 0 000 4z" fill="#fff"/><path d="M27.696 68a8 8 0 100-16 8 8 0 000 16z" fill="#FFD66B"/><path d="M27.696 62a2 2 0 100-4 2 2 0 000 4z" fill="#fff"/></svg>