<svg width="80" height="80" fill="none" xmlns="http://www.w3.org/2000/svg"><g clip-path="url(#clip0_1017_624)"><path d="M67.9 80.6h5.5c2.2 0 4.1-1.8 4.1-4.1V50.3c0-1.2-.5-2.3-1.4-3v-2.5c0-2.2-1.8-4.1-4.1-4.1v-28c1.6-.5 2.8-2.1 2.8-3.8v-.3l-1.4-6.9c-.1-.6-.7-1-1.3-1h-2.8c-.6 0-1.1.4-1.3 1l-1.4 6.9v.3c0 1.8 1.2 3.3 2.8 3.8v28h-.1c-2.2 0-4.1 1.8-4.1 4.1v2.5c-.8.7-1.4 1.8-1.4 3v26.3c0 2.2 1.9 4 4.1 4z" fill="#005AAA"/><path d="M74.9 76.5c0 .8-.7 1.5-1.5 1.5h-5.5c-.8 0-1.5-.7-1.5-1.5V50.3c0-.8.7-1.5 1.5-1.5h5.5c.8 0 1.5.7 1.5 1.5v26.2z" fill="#FFD66B"/><path d="M67.8 44.7c0-.8.7-1.5 1.5-1.5h2.8c.8 0 1.5.7 1.5 1.5v1.5h-5.7v-1.5h-.1zm2.9 7c-.7 0-1.3.6-1.3 1.3v20.7c0 .7.6 1.3 1.3 1.3.7 0 1.3-.6 1.3-1.3V53c0-.7-.6-1.3-1.3-1.3z" fill="#005AAA"/><path d="M43.5 3h-32c-3 0-5.4 2.4-5.4 5.4v63.1c0 3 2.4 5.4 5.4 5.4h31.9c3 0 5.4-2.4 5.4-5.4v-63c.1-3.1-2.3-5.5-5.3-5.5z" fill="#3D8AFF"/><path d="M48.9 15.8H6.1v42.8h42.8V15.8z" fill="#FFD66B"/><path d="M42.9 0H11C6.3 0 2.5 3.8 2.5 8.5v63.1c0 4.7 3.8 8.5 8.5 8.5h31.9c4.7 0 8.5-3.8 8.5-8.5V8.5C51.3 3.8 47.5 0 42.9 0zM11 6h31.9c1.3 0 2.4 1.1 2.4 2.4v4.3H8.5V8.5C8.5 7.1 9.6 6 11 6zm34.3 49.6H8.5V18.8h36.8v36.8zM42.9 74H11c-1.3 0-2.4-1.1-2.4-2.4v-10h36.8v10c-.1 1.3-1.2 2.4-2.5 2.4z" fill="#005AAA"/><path d="M29.1 64.7h-2.3c-1.7 0-3 1.3-3 3s1.3 3 3 3h2.3c1.7 0 3-1.3 3-3 .1-1.7-1.3-3-3-3z" fill="#FFD66B"/></g><defs><clipPath id="clip0_1017_624"><path fill="#fff" d="M0 0h80v80H0z"/></clipPath></defs></svg>