<svg width="80" height="81" fill="none" xmlns="http://www.w3.org/2000/svg"><path d="M40 75.493c18.557 0 33.6-15.044 33.6-33.6 0-18.557-15.043-33.6-33.6-33.6-18.557 0-33.6 15.043-33.6 33.6 0 18.556 15.043 33.6 33.6 33.6z" fill="#005AAA"/><path d="M40 65.893c13.255 0 24-10.746 24-24 0-13.255-10.745-24-24-24s-24 10.745-24 24c0 13.254 10.745 24 24 24z" fill="#3D8AFF"/><path d="M48.4 52.692l-8.4-10.8v-14.4" stroke="#fff" stroke-width="5" stroke-linecap="round" stroke-linejoin="round"/><path d="M36 14.692H22.4m8.8 4.8h-20M28 24.293H6.4" stroke="#FFD66B" stroke-width="2" stroke-linecap="round" stroke-linejoin="round"/></svg>