<svg width="80" height="81" fill="none" xmlns="http://www.w3.org/2000/svg"><path d="M64 16.293H12a8 8 0 00-8 8v32a8 8 0 008 8h52a8 8 0 008-8v-32a8 8 0 00-8-8z" fill="#3D8AFF"/><path d="M72 24.293H4v8h68v-8z" fill="#005AAA"/><path d="M24 48.58h-8a4 4 0 100 8h8a4 4 0 000-8zm40 27.713c6.627 0 12-5.373 12-12 0-6.628-5.373-12-12-12s-12 5.372-12 12c0 6.627 5.373 12 12 12z" fill="#FFD66B"/><path d="M60 64.292l2.832 2.832 5.656-5.664" stroke="#fff" stroke-width="2" stroke-linecap="round" stroke-linejoin="round"/></svg>