<svg width="80" height="81" fill="none" xmlns="http://www.w3.org/2000/svg"><path d="M40 72.292a32.576 32.576 0 01-28-32.248V28.932a8 8 0 014-6.944l20-11.424a8 8 0 017.936 0L64 21.988a8 8 0 014 6.944v11.104a32.568 32.568 0 01-28 32.256z" fill="#005AAA"/><path d="M37.8 9.82a7.759 7.759 0 00-1.768.745L16 21.989a7.998 7.998 0 00-4 6.944V40.3A20 20 0 0037.792 9.82h.008z" fill="#FFD66B"/><path d="M40 63.276a23.272 23.272 0 01-20-22.984v-9.36a3.328 3.328 0 011.68-2.887l16.664-9.529a3.352 3.352 0 013.312 0l16.664 9.529A3.328 3.328 0 0160 30.931v9.313a23.264 23.264 0 01-20 23.032z" fill="#3D8AFF"/><path d="M32 40.292l5.336 5.6L48 34.692" stroke="#fff" stroke-width="5" stroke-linecap="round" stroke-linejoin="round"/><path d="M60 56.292a4 4 0 00-2.152 7.36 32.693 32.693 0 005.04-6.111A3.998 3.998 0 0060 56.293z" fill="#FFD66B"/></svg>