<svg width="21" height="22" fill="none" xmlns="http://www.w3.org/2000/svg"><path fill-rule="evenodd" clip-rule="evenodd" d="M5.8.781h9.4c3 0 5.5 2.5 5.5 5.5v9.35c0 3-2.5 5.5-5.5 5.5H5.8c-3 0-5.5-2.5-5.5-5.5v-9.35c0-3.05 2.5-5.5 5.5-5.5zm10.15 3.55c.65 0 1.15.55 1.15 1.15 0 .65-.55 1.15-1.15 1.15-.7 0-1.15-.55-1.15-1.15 0-.6.5-1.15 1.15-1.15zm-5.45 1.05c3.05 0 5.6 2.55 5.6 5.55 0 3.05-2.55 5.55-5.55 5.55h-.05c-3 0-5.5-2.5-5.5-5.55 0-3 2.45-5.55 5.5-5.55zm0 1.9c2.05 0 3.7 1.65 3.7 3.65 0 2.05-1.65 3.7-3.65 3.7h-.05c-2 0-3.65-1.65-3.65-3.7 0-2 1.65-3.65 3.65-3.65zm-4.65-4.75h9.3c2.1 0 3.8 1.7 3.8 3.8v9.25c0 2.1-1.7 3.8-3.8 3.8h-9.3c-2.1 0-3.8-1.7-3.8-3.8v-9.25c0-2.1 1.7-3.8 3.8-3.8z" fill="#FFD66B"/></svg>