<svg width="145" height="51" fill="none" xmlns="http://www.w3.org/2000/svg"><path d="M17.257 19.075h8.964v5.43h-8.964v-5.43z" fill="#F8AF78"/><path fill-rule="evenodd" clip-rule="evenodd" d="M25.867 19.426H17.61v4.728h8.256v-4.728zm-8.61-.351v5.43h8.964v-5.43h-8.964z" fill="#000"/><path d="M21.714 23.671c2.982 0 4.371-1.307 4.693-1.96 4.816 0 10.006 3.17 12.847 9.338 1.014 2.414 1.211 5.231 1.43 8.652l-.823 1.162-7.58.287c.083-.745.28-2.37.412-2.916.132-.544.085-.563.506-.726-.165-.454-.42-1.797-.662-2.299-.302-.626-.537-1.465-1.389-2.174-.681-.566-.888-.653-.906-.626l-.165.327-.963 10.666-2.617.535-4.783.381-6.38-.381-2.328-.481-.57-10.579v-.566l-1.54 3.076-.696.996c.25.631.438 1.445.117 1.97-.321.526-.372.663-.596.678-.18.012-1.88 1.08-2.294 1.837l-.41.811-3.106-1.627a13.05 13.05 0 01-.898-3.67c-.237-.532-.673-1.708-.524-2.15.149-.444 1.01-.85 1.422-.997l.849-2.215 2.27-3.727 2.444-2.88c2.326-1.526 5.002-2.483 7.546-2.702.322.653 1.712 1.96 4.694 1.96z" fill="#fff"/><path fill-rule="evenodd" clip-rule="evenodd" d="M30.375 32.384l-1.148 11.12-.352-.036 1.148-11.12.352.036zm-17.811.457l.425 10.404-.353.014-.426-10.404.353-.014z" fill="#000"/><path fill-rule="evenodd" clip-rule="evenodd" d="M16.797 44.134l-9.14-1.515.058-.346 9.14 1.515c3.533.585 7.144.524 10.655-.18l6.648-1.334.07.344-6.648 1.334a29.944 29.944 0 01-10.783.182zm15.971-20.25c-1.982-1.163-4.165-1.73-6.71-2.164l.06-.346c2.56.437 4.793 1.013 6.83 2.207 2.04 1.196 3.87 3.005 5.64 5.887 1.044 1.701 1.734 3.99 2.046 6.07.156 1.04.218 2.034.181 2.88-.037.841-.172 1.557-.427 2.029l-.072.133-7.248-2.558-.023-.093a17.445 17.445 0 01-.222-1.14 43.273 43.273 0 00-.055-.316c-.08-.45-.17-.868-.329-1.28-.308-.793-.89-1.59-2.243-2.531l-.748.54-.209-.285.778-.56v-.709h.354v.707c1.414.978 2.056 1.832 2.399 2.713.172.444.266.888.347 1.343.02.109.038.218.056.327.056.327.113.662.195 1.017l6.774 2.39c.177-.405.287-1.004.32-1.742.035-.82-.025-1.79-.179-2.813-.307-2.05-.986-4.29-1.998-5.939-1.746-2.845-3.537-4.607-5.517-5.767z" fill="#000"/><path d="M40.944 41.656c-.616 1.532-3.035 2.016-5.402 1.08-2.367-.936-3.787-2.936-3.17-4.469.615-1.532 3.034-2.015 5.401-1.08 2.368.936 3.787 2.937 3.171 4.47z" fill="#fff"/><path fill-rule="evenodd" clip-rule="evenodd" d="M38.83 42.777c.904-.18 1.536-.63 1.785-1.25.25-.62.104-1.378-.427-2.127-.529-.745-1.417-1.44-2.546-1.886-1.129-.447-2.255-.548-3.156-.368-.905.181-1.536.632-1.786 1.251-.249.62-.103 1.378.428 2.126.528.746 1.416 1.44 2.545 1.887 1.13.446 2.256.548 3.157.367zm-3.288-.04c2.367.935 4.786.451 5.402-1.08.616-1.533-.803-3.534-3.17-4.47-2.368-.935-4.787-.452-5.403 1.08-.616 1.532.804 3.533 3.171 4.47zM10.333 23.458c1.705-1.18 3.77-1.734 6.979-2.17l.048.347c-3.196.435-5.19.98-6.824 2.11-1.635 1.133-2.927 2.867-4.685 5.73-1.02 1.661-1.838 3.55-2.284 5.235-.223.843-.352 1.63-.368 2.31-.015.616.064 1.13.237 1.518l6.35-1.574a.767.767 0 01-.024-.203.79.79 0 01.101-.367c.096-.178.261-.363.45-.575l.115-.13c.48-.546 1.169-1.398 1.785-3.096v-.768h.354v.71l.778.56-.209.284-.66-.477c-.617 1.624-1.299 2.469-1.78 3.017l-.127.144c-.189.212-.318.358-.393.496a.443.443 0 00-.06.208.543.543 0 00.064.244l.094.194-7.025 1.741-.066-.12c-.255-.474-.355-1.102-.338-1.814.017-.715.151-1.53.38-2.391.455-1.721 1.287-3.64 2.324-5.329 1.758-2.864 3.082-4.655 4.784-5.834z" fill="#000"/><path d="M3.916 39.143l3.54 3.51a1.41 1.41 0 001.981 0 1.38 1.38 0 000-1.963l-3.54-3.51-1.981 1.963z" fill="#E2001A"/><path fill-rule="evenodd" clip-rule="evenodd" d="M5.896 36.93l3.666 3.636c.616.61.616 1.6 0 2.212-.616.61-1.615.61-2.23 0l-3.667-3.635 2.231-2.212zm-1.73 2.213l3.416 3.386a1.23 1.23 0 001.73 0 1.206 1.206 0 000-1.715l-3.416-3.386-1.73 1.715z" fill="#000"/><path d="M14.076 46.197l.796 1.184a.102.102 0 01-.069.151.066.066 0 01-.03-.002l-.35-.093a.047.047 0 00-.018-.002.104.104 0 00-.087.085v.016l.08.378a.068.068 0 010 .028.104.104 0 01-.152.066l-1.198-.79a.1.1 0 01-.04-.043l-.536-.976a.099.099 0 00-.02-.027L9.12 42.867a.397.397 0 010-.565.405.405 0 01.57 0l3.333 3.305a.101.101 0 00.027.02l.985.53a.1.1 0 01.042.04z" fill="#fff"/><path fill-rule="evenodd" clip-rule="evenodd" d="M8.994 42.178a.584.584 0 01.82 0l3.325 3.297.977.527a.277.277 0 01.11.1l.796 1.186.003.004a.278.278 0 01-.185.412.245.245 0 01-.114-.005l-.204-.054.05.233a.24.24 0 010 .102.281.281 0 01-.415.18l-.004-.003-1.2-.792a.276.276 0 01-.102-.11l-.532-.967-3.325-3.297a.572.572 0 010-.813zm5.384 5.428zm-4.814-5.18a.227.227 0 00-.32 0 .222.222 0 000 .317l3.334 3.304c.02.021.038.045.051.07l.528.96 1.027.679-.039-.184a.22.22 0 01-.002-.082.28.28 0 01.236-.229c.038-.005.07 0 .091.006l.137.037-.67-.999-.97-.523a.276.276 0 01-.07-.051l-3.333-3.305z" fill="#000"/><path d="M1.993 34.604c-.67 1.51.676 3.559 3.009 4.578 2.332 1.018 4.766.62 5.437-.89.67-1.51-.677-3.559-3.009-4.577-2.332-1.019-4.767-.62-5.437.89z" fill="#fff"/><path fill-rule="evenodd" clip-rule="evenodd" d="M2.668 36.885c-.504-.766-.622-1.529-.351-2.14.271-.61.918-1.038 1.829-1.187.907-.148 2.029-.007 3.141.478 1.113.486 1.975 1.212 2.477 1.975.504.767.622 1.53.35 2.14-.27.61-.918 1.039-1.828 1.188-.907.148-2.029.007-3.141-.479-1.113-.486-1.975-1.211-2.477-1.975zm2.334 2.297c-2.333-1.019-3.68-3.068-3.01-4.578.671-1.51 3.106-1.907 5.438-.889s3.68 3.068 3.009 4.577c-.67 1.51-3.105 1.908-5.437.89z" fill="#000"/><path d="M2.864 34.802l1.36 1.347-1.937 1.922-1.36-1.347a1.35 1.35 0 010-1.921 1.378 1.378 0 011.937-.001z" fill="#E2001A"/><path fill-rule="evenodd" clip-rule="evenodd" d="M2.287 38.32L.802 36.847a1.525 1.525 0 010-2.17 1.556 1.556 0 012.187 0l1.485 1.471-2.187 2.17zm1.686-2.17l-1.235-1.224a1.2 1.2 0 00-1.686.001 1.175 1.175 0 000 1.673l1.235 1.222 1.686-1.673z" fill="#000"/><path d="M2.138 36.013l-.883 2.54c-.29.693-.163 1.117.315 1.416.477.3.97-.205 1.22-.595-.22.344-.48 1.08-.071 1.427.12.102.269.171.422.206.383.087.866-.102 1.073-.426-.249.39-.56.894 0 1.242.496.387 1.175.042 1.424-.348l-1.097 2.16c-.244.458-.231.87.106 1.082.282.177.673.15.991-.221l2.494-3.2 1.104-1.635a2.33 2.33 0 00-.824-3.354l-2.904-1.583c-1.283-.7-2.893-.084-3.37 1.29z" fill="#F8AF78"/><path fill-rule="evenodd" clip-rule="evenodd" d="M5.423 34.878c-1.187-.647-2.676-.077-3.118 1.193l-.884 2.545-.002.005c-.138.33-.165.568-.122.747.042.173.156.32.368.453.15.095.302.08.466-.014a1.55 1.55 0 00.457-.449l.05-.074.684-1.182a.178.178 0 01.241-.065.175.175 0 01.066.24l-.686 1.185a1.7 1.7 0 00-.262.703c-.022.222.024.395.152.503a.83.83 0 00.348.168c.15.034.33.015.497-.05a.813.813 0 00.386-.298l.742-1.205a.178.178 0 01.244-.058c.083.05.11.158.058.241l-.743 1.207-.001.002a1.21 1.21 0 01-.01.015c-.123.193-.24.408-.27.605a.454.454 0 00.024.249.48.48 0 00.2.215l.008.005.008.005c.182.142.402.144.627.051.228-.093.431-.273.537-.437l.601-.982a.177.177 0 01.303.182l-.602.983-.001.002-.001.001a1.162 1.162 0 01-.013.02h.003l-1.08 2.126v.002c-.113.211-.157.395-.145.537.01.135.07.24.189.315.106.066.23.093.355.07a.708.708 0 00.404-.254l2.488-3.192 1.1-1.63a2.156 2.156 0 00-.763-3.102l-2.903-1.583zm-.32 7.26l-.017.007c-.298.122-.662.145-.974-.094a.82.82 0 01-.33-.37.8.8 0 01-.048-.438c.006-.038.013-.075.023-.112a1.2 1.2 0 01-.655.047 1.185 1.185 0 01-.498-.242c-.254-.214-.303-.529-.275-.806l.004-.034-.025.015c-.241.138-.54.191-.833.007-.266-.167-.454-.382-.523-.669-.067-.279-.013-.597.137-.957l.881-2.536c.513-1.476 2.244-2.138 3.623-1.386l2.904 1.583a2.505 2.505 0 01.886 3.606l-1.107 1.64-2.5 3.207-.003.004a1.062 1.062 0 01-.612.375.853.853 0 01-.608-.12.736.736 0 01-.354-.583c-.018-.23.053-.481.184-.728l.72-1.416z" fill="#000"/><path d="M32.335 42.039l-1.095 1.928a1.565 1.565 0 01-1.506.782.516.516 0 01-.42-.74l1.36-2.776c.135-.275.343-.51.541-.744.675-.8 1.587-2.427 4.305-2.125 2.046.227 4.695 2.314 3.679 5.036-.813 2.177-2.384 2.441-3.068 2.3-.605.488-1.326.644-1.711.652l-1.277 2.158a.655.655 0 01-1.145-.632c1.123-2.277 2.264-5.765 1.628-6.03-.681-.283-1.044-.045-1.29.19z" fill="#F8AF78"/><path fill-rule="evenodd" clip-rule="evenodd" d="M32.497 38.871c.69-.495 1.641-.838 3.043-.682 1.067.119 2.281.718 3.1 1.641.826.93 1.26 2.198.725 3.63-.814 2.18-2.386 2.547-3.187 2.427-.595.456-1.245.618-1.656.639l-1.226 2.073a.833.833 0 01-1.257.206.834.834 0 01-.2-1.004A24.753 24.753 0 0033.3 44.06c.172-.591.287-1.11.32-1.494a1.54 1.54 0 00-.01-.439.302.302 0 00-.036-.098c-.01-.016-.017-.018-.018-.019-.313-.13-.533-.133-.695-.091a.894.894 0 00-.386.229l-1.082 1.905a1.743 1.743 0 01-1.677.87.691.691 0 01-.562-.99l1.36-2.776c.134-.274.334-.51.514-.722l.05-.059c.07-.082.143-.176.223-.278.292-.37.666-.846 1.195-1.227zm2.226 7.28a2.83 2.83 0 001.296-.587c.287-.232.559-.545.77-.964a.178.178 0 01.238-.078.175.175 0 01.079.236 3.32 3.32 0 01-.557.796c.71-.034 1.837-.482 2.484-2.215.48-1.29.098-2.425-.658-3.277-.762-.858-1.896-1.415-2.875-1.524-1.316-.146-2.18.175-2.795.618-.484.348-.816.77-1.106 1.137-.085.109-.167.213-.248.309l-.046.054c-.186.22-.358.422-.471.654l-1.36 2.776a.34.34 0 00.276.488 1.388 1.388 0 001.336-.693l1.108-1.951.018-.018c.133-.127.312-.269.56-.333.253-.065.554-.046.922.107.16.066.231.22.263.366.033.15.035.338.017.545-.036.416-.158.961-.332 1.56a25.29 25.29 0 01-1.485 3.798.477.477 0 00.834.466l1.273-2.153 1.345-2.595a.178.178 0 01.239-.076c.087.045.121.15.077.237l-1.202 2.317zM16.588 21.794c.092-.125.173-.235.238-.33l.322.12c-.06.452.157.897.583 1.379.412.465.99.932 1.616 1.437l.06.049c.643.519 1.326 1.075 1.887 1.693.56.619 1.01 1.31 1.174 2.105.09.438.142 1.349.168 2.529.025 1.187.023 2.663.001 4.243a224.956 224.956 0 01-.315 9.255l-.354-.02c.148-2.512.272-6.085.315-9.24.022-1.578.024-3.05-.002-4.23-.025-1.188-.078-2.066-.16-2.467-.146-.71-.552-1.346-1.09-1.94-.54-.595-1.202-1.134-1.848-1.656l-.073-.059c-.614-.496-1.213-.98-1.646-1.468-.312-.352-.552-.724-.642-1.121-.431.589-.999 1.383-1.15 2.372-.181 1.18.237 2.68 2.424 4.417l1.349-2.742.296 2.628c.52.194 1.01.743 1.383 1.768.402 1.106.683 2.803.714 5.32.01.928-.014 2.625-.041 4.292l-.008.46c-.024 1.506-.047 2.927-.043 3.674l-.354.002a223.873 223.873 0 01.05-4.141c.027-1.67.053-3.361.041-4.283-.03-2.499-.31-4.151-.693-5.205-.385-1.059-.86-1.478-1.258-1.585l-.117-.032-.187-1.657-1.005 2.044-.172-.132c-2.402-1.843-2.94-3.504-2.73-4.881.17-1.111.833-2.01 1.267-2.598z" fill="#000"/><path fill-rule="evenodd" clip-rule="evenodd" d="M26.915 21.935a9.79 9.79 0 01-.264-.364l-.325.097c0 .36-.179.721-.502 1.104-.323.382-.773.766-1.28 1.175l-.383.306c-.916.728-1.933 1.538-2.58 2.51l.296.194c.613-.923 1.582-1.695 2.502-2.427l.389-.31c.506-.41.98-.812 1.328-1.223.235-.278.42-.57.515-.879l.023.031.092.124c.14.188.289.394.431.62.286.452.54.976.63 1.567.171 1.135-.253 2.59-2.443 4.327l-1.348-2.742-.297 2.628c-.511.187-1.047.71-1.42 1.702l.332.122c.378-1.003.901-1.415 1.298-1.522l.116-.032.187-1.657 1.005 2.044.172-.132c2.4-1.84 2.95-3.456 2.748-4.79-.1-.657-.38-1.227-.68-1.701a9.78 9.78 0 00-.445-.642l-.097-.13z" fill="#000"/><path d="M28.529 11.737c.06-.718-.61-.748-.951-.673-.237 1.277-.622 3.827-.272 3.815.438-.015.83-.134.906-1.017.075-.883.241-1.227.317-2.125z" fill="#F8AF78"/><path fill-rule="evenodd" clip-rule="evenodd" d="M28.275 10.941c-.25-.108-.545-.091-.735-.05l-.115.025-.021.115a33.163 33.163 0 00-.358 2.405c-.041.4-.065.767-.055 1.037.005.133.018.256.048.35.014.046.038.1.077.145a.25.25 0 00.196.086c.228-.008.49-.043.7-.227.212-.185.337-.49.376-.951.037-.429.095-.727.155-1.033l.001-.005c.06-.31.123-.628.161-1.087a.873.873 0 00-.098-.521.695.695 0 00-.332-.289zm.025.464a.53.53 0 01.052.317 8.808 8.808 0 01-.156 1.049l-.001.008c-.06.306-.121.62-.16 1.067-.036.421-.144.618-.257.717-.101.089-.233.124-.406.136a1.218 1.218 0 01-.027-.239 7.748 7.748 0 01.053-.988c.077-.74.218-1.624.332-2.256a.839.839 0 01.403.047c.073.032.13.078.167.142z" fill="#000"/><path d="M14.589 11.773c-.06-.718.609-.748.95-.674.237 1.277.623 3.828.272 3.816-.437-.015-.83-.135-.905-1.018-.075-.882-.242-1.227-.317-2.124z" fill="#F8AF78"/><path fill-rule="evenodd" clip-rule="evenodd" d="M14.843 10.976c.25-.108.545-.091.735-.05l.115.026.021.114c.119.641.275 1.603.358 2.405.041.4.065.767.055 1.037a1.376 1.376 0 01-.048.35.394.394 0 01-.077.145.249.249 0 01-.196.086c-.228-.008-.49-.043-.7-.227-.211-.185-.337-.49-.376-.951a8.768 8.768 0 00-.155-1.032l-.001-.006a9.145 9.145 0 01-.161-1.087.874.874 0 01.098-.52.696.696 0 01.332-.29zm-.025.464a.53.53 0 00-.052.317c.037.439.096.742.156 1.049l.001.008c.06.307.122.62.16 1.067.036.421.144.619.258.718.1.088.232.123.406.135.012-.05.022-.128.026-.238a7.764 7.764 0 00-.053-.989 32.456 32.456 0 00-.332-2.255.84.84 0 00-.403.046.343.343 0 00-.167.142z" fill="#000"/><path d="M15.81 3.526c-.724 2.14-.724 4.773-.618 6.345.362 1.975.498 7.585.498 7.585.366 3.183 4.16 4.474 5.96 4.729 3.774-.42 5.766-3.053 5.886-4.729.121-1.675.559-6.987.559-8.812 0-1.46-.413-2.853-.619-3.367.41.347.654 1.282.724 1.706.133-2.418-1.162-2.993-1.826-2.978-.105-1.167-.709-2.005-1.75-2.379-.833-.3-1.957-.394-2.415-.404a7.358 7.358 0 012.007.105c-2.203-.988-4.769-.15-6.474.583-1.364.587-1.856 1.98-1.932 2.604v-.988z" fill="#000"/><path d="M17.006 5.786c-1.183 1.053-1.297 4.848-1.207 6.613 0 .504.109 1.706.725 3.202.615 1.496 1.715 1.446 2.082 1.197.531-.634 1.313-.908 1.72-1.017.11.251.499.204.68.15.616.25 1.273.104 1.524 0 .386.119.604-.05.664-.15.83.074 1.056.808 2.052 1.122.997.314 1.902-1.392 2.128-2.514.227-1.122.166-4.833-.211-7.032-.302-1.76-1.263-2.24-1.705-2.26-.272.23-1.455.67-4.015.599-3.199-.09-2.958-1.227-4.437.09z" fill="#F8AF78"/><path d="M16.69 9.594c-.178-.068-.279-.28-.322-.432a.122.122 0 01.053-.134c1.357-.9 3.027-.542 3.768-.22a.12.12 0 01.075.105c.012.34-.234.56-.409.657a.128.128 0 01-.128-.008c-1.192-.737-2.793-.03-2.997.035a.057.057 0 01-.04-.003zm9.947.006c.179-.068.28-.28.323-.431a.122.122 0 00-.052-.134c-1.358-.902-3.028-.543-3.77-.221a.12.12 0 00-.073.105c-.012.34.233.561.408.657.04.022.089.016.128-.008 1.192-.737 2.793-.03 2.997.035a.058.058 0 00.04-.002z" fill="#000"/><path fill-rule="evenodd" clip-rule="evenodd" d="M14.764 10.978V9.96c.619-.13 2.288-.35 4.015-.194 1.119.1 1.47.23 1.746.33.256.094.445.163 1.12.163.677 0 .866-.069 1.122-.163.275-.1.627-.23 1.746-.33 1.727-.156 3.396.065 4.015.194v1.018c-.181.194-.562.661-.634.972-.09.39-.498 2.02-3.11 1.886-.618-.015-1.934-.243-2.248-1.033-.075-.188-.139-.36-.197-.514-.246-.655-.375-1-.693-1.012-.318.012-.447.357-.693 1.012-.058.155-.123.326-.197.514-.314.79-1.63 1.018-2.25 1.033-2.61.134-3.017-1.497-3.108-1.886-.072-.31-.453-.778-.634-.972zm1.072 1.122a2.923 2.923 0 010-1.242c.28-.9 1.966-.781 3.114-.7.15.01.29.02.417.027 1.243.068 1.555 1.003 1.253 1.915-.302.913-.71 1.616-2.58 1.482-1.872-.135-2.053-.793-2.204-1.482zm11.676-1.242c.05.225.12.692 0 1.242-.151.689-.332 1.347-2.204 1.482-1.871.134-2.279-.569-2.58-1.482-.302-.912.01-1.847 1.252-1.915.127-.007.268-.017.418-.027 1.148-.081 2.833-.2 3.114.7z" fill="#000"/><path d="M19.816 17.186c.932.216 1.623.251 1.831.251.21 0 .91-.035 1.85-.256.02-.004.038.01.037.03-.026.533-.51 1.548-1.887 1.548-1.36 0-1.849-.99-1.886-1.528a.044.044 0 01.055-.045z" fill="#FF1010"/><path d="M19.816 17.186c.932.216 1.623.251 1.831.251.21 0 .91-.035 1.85-.256.02-.004.038.01.037.03-.007.142-.047.32-.127.502a.042.042 0 01-.019.02c-.16.087-.708.248-1.74.248-1.034 0-1.582-.161-1.742-.248a.042.042 0 01-.018-.02 1.473 1.473 0 01-.127-.482.044.044 0 01.055-.045z" fill="#fff"/><ellipse cx="18.326" cy="11.562" rx=".619" ry=".613" fill="#000"/><ellipse cx="18.491" cy="11.427" rx=".211" ry=".21" fill="#fff"/><ellipse cx="24.996" cy="11.561" rx=".619" ry=".613" fill="#000"/><ellipse cx="25.162" cy="11.427" rx=".211" ry=".21" fill="#fff"/><path d="M27.7 45.175c.426 0 .794.296.886.711l.83 3.77a.906.906 0 01-.884 1.102H15.545a.907.907 0 01-.889-1.085l.757-3.77a.906.906 0 01.888-.728h11.4z" fill="#000"/><path d="M27.845 45.613a.44.44 0 01.43.345l.843 3.828a.44.44 0 01-.43.535H15.51a.44.44 0 01-.432-.527l.776-3.829a.44.44 0 01.43-.352h11.561z" fill="#fff"/><path d="M26.946 45.804c.133 0 .249.093.277.223l.799 3.71a.283.283 0 01-.277.342H16.89a.283.283 0 01-.278-.34l.756-3.709a.283.283 0 01.277-.226h9.3zm-10.722 1.585c.157 0 .286.127.286.283a.286.286 0 01-.572 0c0-.156.129-.283.286-.283z" fill="#000"/><path d="M59.828 29.526l-.658-2.446h-5.536l-.658 2.446h-5.892l6.111-19.022h6.414l6.112 19.022h-5.893zm-5.015-6.794h3.179l-1.59-5.842-1.59 5.842zm23.547 6.767l-3.042-5.979h-1.37v5.98h-5.482V10.477h7.675c2.1 0 3.837.616 5.207 1.848 1.37 1.213 2.056 2.826 2.056 4.837 0 1.123-.265 2.137-.795 3.043a5.975 5.975 0 01-2.165 2.201l3.782 7.093h-5.865zm-4.412-14.022v3.533h2.083c.585.018 1.041-.127 1.37-.435.348-.308.521-.743.521-1.305 0-.561-.173-.996-.52-1.304-.33-.326-.786-.49-1.371-.49h-2.083zm23.187 14.022l-3.042-5.979h-1.37v5.98H87.24V10.477h7.674c2.101 0 3.837.616 5.208 1.848 1.37 1.213 2.055 2.826 2.055 4.837 0 1.123-.265 2.137-.794 3.043a5.98 5.98 0 01-2.166 2.201L103 29.499h-5.866zm-4.413-14.022v3.533h2.084c.584.018 1.041-.127 1.37-.435.347-.308.52-.743.52-1.305 0-.561-.173-.996-.52-1.304-.329-.326-.786-.49-1.37-.49h-2.084zm29.718 11.631c-1.956 1.902-4.358 2.853-7.209 2.853-2.85 0-5.262-.951-7.236-2.853-1.955-1.92-2.932-4.285-2.932-7.093s.977-5.163 2.932-7.065c1.974-1.92 4.386-2.88 7.236-2.88 2.851 0 5.253.96 7.209 2.88 1.973 1.902 2.96 4.257 2.96 7.065 0 2.808-.987 5.172-2.96 7.093zm-10.58-3.778c.895.87 2.019 1.305 3.371 1.305 1.352 0 2.467-.435 3.344-1.305.895-.887 1.343-1.992 1.343-3.315s-.448-2.419-1.343-3.288c-.877-.888-1.992-1.332-3.344-1.332-1.352 0-2.476.444-3.371 1.332-.877.87-1.316 1.965-1.316 3.288 0 1.322.439 2.428 1.316 3.315zm27.655-12.826h5.481v19.022h-4.385l-6.03-8.696v8.696H129.1V10.504h4.385l6.03 8.696v-8.696z" fill="#E2001A"/><rect x="47.074" y="33.091" width="97.926" height="8.536" rx="4.268" fill="#276CAA"/><path d="M55.838 39.664c-.44 0-.814-.1-1.123-.297a1.572 1.572 0 01-.64-.816l.647-.375c.182.509.56.764 1.135.764.283 0 .494-.054.633-.162a.526.526 0 00.215-.434.464.464 0 00-.228-.42c-.152-.1-.422-.207-.81-.324a5.519 5.519 0 01-.528-.181 2.694 2.694 0 01-.43-.233 1 1 0 01-.333-.382 1.192 1.192 0 01-.111-.53c0-.401.143-.718.43-.951a1.576 1.576 0 011.038-.356c.366 0 .685.088.96.265.274.177.485.42.632.731l-.633.362c-.191-.422-.51-.634-.959-.634-.217 0-.391.052-.522.156a.484.484 0 00-.196.407.48.48 0 00.196.402c.135.094.376.196.724.304.174.056.3.099.379.129.083.026.196.069.34.13.147.06.258.12.332.18.074.061.152.136.235.227.087.09.148.194.183.31.035.117.052.249.052.395 0 .41-.15.736-.45.977-.296.237-.685.356-1.168.356zm5.593-.796h2.023v.712h-2.773v-4.53h2.74v.713h-1.99v1.177h1.828v.705H61.43v1.223zm7.925.712l-.966-1.65h-.888v1.65h-.75v-4.53h1.827c.409 0 .755.143 1.038.428.287.28.43.623.43 1.029 0 .289-.085.554-.254.796a1.42 1.42 0 01-.653.517l1.038 1.76h-.822zm-1.854-3.83v1.514h1.077c.2 0 .37-.074.509-.22a.75.75 0 00.209-.537c0-.212-.07-.39-.209-.537a.675.675 0 00-.51-.22h-1.076zm6.96 3.83l-1.586-4.53h.822l1.214 3.63 1.22-3.63h.816l-1.585 4.53h-.901zm5.585-4.53h.75v4.53h-.75v-4.53zm6.433 4.614c-.687 0-1.257-.224-1.71-.673-.452-.453-.678-1.011-.678-1.675 0-.665.226-1.221.679-1.67.452-.453 1.022-.68 1.71-.68.413 0 .793.098 1.141.292.353.194.627.457.823.79l-.653.375a1.315 1.315 0 00-.535-.53 1.508 1.508 0 00-.777-.202c-.487 0-.883.154-1.187.46-.3.306-.45.694-.45 1.164s.15.859.45 1.165c.304.306.7.46 1.187.46.287 0 .549-.065.783-.195a1.31 1.31 0 00.53-.537l.652.37a2.12 2.12 0 01-.816.795 2.32 2.32 0 01-1.149.291zm5.949-.796h2.023v.712h-2.774v-4.53h2.741v.713h-1.99v1.177h1.827v.705H92.43v1.223zm11.722.796c-.687 0-1.257-.224-1.71-.673-.452-.453-.678-1.011-.678-1.675 0-.665.226-1.221.678-1.67.453-.453 1.023-.68 1.71-.68.413 0 .794.098 1.142.292.352.194.626.457.822.79l-.652.375a1.321 1.321 0 00-.535-.53 1.51 1.51 0 00-.777-.202c-.487 0-.883.154-1.188.46-.3.306-.45.694-.45 1.164s.15.859.45 1.165c.305.306.701.46 1.188.46.287 0 .548-.065.783-.195.235-.133.411-.312.529-.537l.652.37a2.117 2.117 0 01-.815.795 2.321 2.321 0 01-1.149.291zm5.948-.796h2.023v.712h-2.773v-4.53h2.741v.713h-1.991v1.177h1.828v.705h-1.828v1.223zm8.062-3.818h.75v4.53h-.587l-2.154-3.073v3.073h-.75v-4.53h.587l2.154 3.074v-3.073zm7.242 0v.713h-1.286v3.817h-.75v-3.817h-1.292v-.712h3.328zm3.916 3.818h2.023v.712h-2.774v-4.53h2.741v.713h-1.99v1.177h1.827v.705h-1.827v1.223zm7.924.712l-.966-1.65h-.888v1.65h-.75v-4.53h1.827c.409 0 .755.143 1.038.428.287.28.43.623.43 1.029 0 .289-.084.554-.254.796a1.42 1.42 0 01-.653.517l1.038 1.76h-.822zm-1.854-3.83v1.514h1.077c.2 0 .37-.074.509-.22a.752.752 0 00.209-.537c0-.212-.07-.39-.209-.537a.675.675 0 00-.509-.22h-1.077z" fill="#fff"/></svg>