<svg width="226" height="79" fill="none" xmlns="http://www.w3.org/2000/svg"><path d="M48.04 27.191h12.488v7.89H48.04v-7.89z" fill="#F8AF78"/><path fill-rule="evenodd" clip-rule="evenodd" d="M60.035 27.701H48.534v6.869h11.501v-6.869zm-11.995-.51v7.89h12.488v-7.89H48.04z" fill="#000"/><path d="M54.25 33.868c4.154 0 6.09-1.898 6.538-2.847 6.71 0 13.94 4.605 17.897 13.565 1.413 3.507 1.687 7.6 1.992 12.57l-1.147 1.687-10.559.417c.115-1.082.39-3.444.574-4.235.184-.792.118-.818.705-1.056-.23-.66-.586-2.61-.922-3.339-.422-.91-.748-2.129-1.935-3.158-.95-.823-1.237-.95-1.263-.91l-.23.475-1.34 15.495-3.647.777-2.976.248a51.066 51.066 0 01-7.38.076l-5.194-.324-3.244-.698-.793-15.368v-.823l-2.148 4.468-.968 1.447c.348.918.61 2.1.163 2.863-.447.764-.518.962-.83.984-.25.018-2.62 1.57-3.197 2.668l-.57 1.179-4.327-2.363c-.7-1.832-1.104-3.614-1.252-5.331-.33-.774-.937-2.483-.73-3.126.208-.643 1.408-1.233 1.982-1.448l1.182-3.216 3.163-5.415 3.405-4.183c3.24-2.218 6.968-3.607 10.512-3.926.449.949 2.384 2.847 6.538 2.847z" fill="#fff"/><path fill-rule="evenodd" clip-rule="evenodd" d="M66.315 46.526L64.716 62.68l-.49-.051 1.599-16.154.49.052zm-24.813.664l.593 15.114-.492.02-.593-15.113.492-.021z" fill="#000"/><path fill-rule="evenodd" clip-rule="evenodd" d="M47.4 63.595l-12.733-2.2.08-.503 12.734 2.2a39.56 39.56 0 0014.843-.261l9.261-1.937.098.5-9.261 1.937a40.036 40.036 0 01-15.022.264zm22.25-29.418c-2.761-1.688-5.803-2.512-9.349-3.144l.084-.503c3.566.636 6.678 1.472 9.516 3.208 2.841 1.737 5.39 4.364 7.856 8.552 1.455 2.47 2.416 5.797 2.85 8.818.218 1.512.304 2.955.253 4.184-.052 1.222-.24 2.262-.595 2.946l-.1.194-10.098-3.716-.031-.135a25.745 25.745 0 01-.31-1.655c-.026-.156-.05-.31-.077-.46-.112-.655-.235-1.26-.458-1.858-.43-1.153-1.24-2.312-3.125-3.678l-1.043.783-.29-.412 1.083-.814v-1.03h.494v1.026c1.97 1.421 2.865 2.662 3.341 3.941.24.645.371 1.29.484 1.953l.08.474c.077.475.157.96.27 1.477l9.437 3.473c.247-.588.4-1.459.445-2.53.05-1.191-.034-2.601-.248-4.088-.428-2.978-1.374-6.233-2.783-8.627-2.433-4.133-4.929-6.693-7.686-8.38z" fill="#000"/><path d="M81.04 59.996c-.859 2.226-4.228 2.928-7.526 1.569-3.298-1.36-5.276-4.267-4.417-6.492.858-2.226 4.227-2.928 7.525-1.569 3.298 1.36 5.276 4.266 4.417 6.492z" fill="#fff"/><path fill-rule="evenodd" clip-rule="evenodd" d="M78.094 61.625c1.26-.263 2.14-.918 2.487-1.818s.145-2.001-.595-3.088c-.737-1.083-1.974-2.093-3.547-2.741-1.572-.648-3.142-.796-4.397-.534-1.26.263-2.14.917-2.487 1.818-.347.9-.145 2 .595 3.088.737 1.083 1.974 2.092 3.547 2.74 1.573.65 3.142.796 4.397.535zm-4.58-.06c3.298 1.359 6.667.657 7.525-1.57.859-2.225-1.119-5.131-4.417-6.49-3.298-1.36-6.667-.658-7.525 1.568-.859 2.225 1.119 5.132 4.417 6.492zM38.396 33.558c2.375-1.715 5.252-2.518 9.721-3.153l.067.505c-4.452.633-7.231 1.424-9.506 3.067C36.4 35.622 34.6 38.14 32.151 42.3c-1.42 2.413-2.56 5.156-3.182 7.605-.31 1.224-.49 2.368-.513 3.356-.02.894.09 1.642.33 2.205l8.848-2.287a1.158 1.158 0 01-.035-.294 1.19 1.19 0 01.142-.533c.133-.26.363-.528.625-.836a8.37 8.37 0 00.161-.19c.669-.793 1.629-2.03 2.487-4.497v-1.115h.493v1.03l1.084.814-.29.413-.921-.692c-.86 2.359-1.809 3.586-2.48 4.383l-.177.208c-.262.308-.443.52-.546.721a.665.665 0 00-.085.301.816.816 0 00.09.356l.13.281-9.786 2.53-.091-.175c-.357-.688-.495-1.6-.472-2.635.024-1.039.211-2.224.529-3.474.634-2.5 1.794-5.289 3.238-7.74 2.45-4.162 4.294-6.764 6.666-8.477z" fill="#000"/><path d="M30.721 57.27l2.664 3.441c.411.532 1.362.324 2.124-.463.762-.788 1.046-1.858.635-2.39l-2.663-3.441-2.76 2.852z" fill="#E2001A"/><path fill-rule="evenodd" clip-rule="evenodd" d="M33.537 54.098l2.758 3.563c.463.6.143 1.804-.715 2.691-.859.888-1.93 1.122-2.393.523l-2.758-3.564 3.108-3.213zm-2.57 3.096l2.568 3.32c.36.464 1.19.283 1.856-.405.666-.688.914-1.623.555-2.087l-2.57-3.32-2.41 2.492z" fill="#000"/><path d="M42.573 65.835l.47 1.254c.019.066-.046.167-.122.2a.066.066 0 01-.033.005l-.343-.032c-.006 0-.013 0-.02.002a.228.228 0 00-.12.123.07.07 0 00-.005.02l-.037.441a.1.1 0 01-.009.034c-.037.084-.13.145-.184.117l-1.03-.682a.057.057 0 01-.029-.043l-.26-1.061a.064.064 0 00-.012-.029l-2.506-3.24c-.119-.153-.037-.46.182-.687.22-.227.493-.287.611-.134l2.507 3.24a.052.052 0 00.023.018l.884.416c.016.007.028.02.033.038z" fill="#fff"/><path fill-rule="evenodd" clip-rule="evenodd" d="M38.421 62.135c.315-.326.71-.413.88-.192l2.5 3.232.877.413a.15.15 0 01.086.097l.47 1.255.002.005c.052.182-.126.457-.331.545a.242.242 0 01-.121.02l-.2-.018-.024.272a.378.378 0 01-.032.124c-.1.225-.354.395-.503.316l-.004-.002-1.03-.683a.158.158 0 01-.074-.11l-.258-1.052-2.5-3.233c-.171-.22-.053-.663.262-.99zm4.02 5.344zm-3.49-5.175c-.066-.086-.219-.053-.342.074-.123.127-.168.3-.102.385l2.507 3.24a.198.198 0 01.032.074l.256 1.045.882.584.018-.214a.34.34 0 01.025-.1.615.615 0 01.326-.333.215.215 0 01.096-.014l.136.012L42.388 66l-.87-.41a.144.144 0 01-.06-.045l-2.506-3.24z" fill="#000"/><path d="M26.776 49.751c-.934 2.193.943 5.17 4.192 6.65 3.25 1.48 6.64.901 7.575-1.292.934-2.193-.943-5.17-4.192-6.65-3.249-1.48-6.64-.901-7.575 1.292z" fill="#fff"/><path fill-rule="evenodd" clip-rule="evenodd" d="M27.717 53.065c-.702-1.114-.867-2.221-.489-3.108.378-.888 1.28-1.51 2.548-1.726 1.263-.215 2.826-.01 4.376.695 1.55.706 2.751 1.76 3.45 2.87.702 1.113.867 2.22.49 3.108-.379.887-1.28 1.508-2.549 1.725-1.263.215-2.826.01-4.376-.695-1.55-.706-2.751-1.76-3.45-2.87zm3.251 3.336c-3.249-1.48-5.126-4.457-4.192-6.65.935-2.193 4.326-2.771 7.575-1.292 3.25 1.48 5.126 4.457 4.192 6.65-.934 2.193-4.326 2.771-7.575 1.292z" fill="#000"/><path d="M27.99 50.038l1.894 1.957-2.698 2.792-1.894-1.957a2.02 2.02 0 01-.002-2.79 1.865 1.865 0 012.7-.002z" fill="#E2001A"/><path fill-rule="evenodd" clip-rule="evenodd" d="M27.186 55.148l-2.069-2.137a2.282 2.282 0 010-3.151 2.105 2.105 0 013.047-.002l2.069 2.137-3.047 3.153zm2.349-3.152l-1.72-1.777a1.623 1.623 0 00-2.35.001 1.76 1.76 0 00.001 2.43l1.72 1.776 2.349-2.43z" fill="#000"/><path d="M26.978 51.798l-1.23 3.69c-.403 1.006-.226 1.622.44 2.057.664.436 1.351-.298 1.698-.864-.305.499-.668 1.568-.098 2.073.167.147.374.248.588.299.534.126 1.206-.148 1.495-.62-.347.567-.78 1.3 0 1.805.69.563 1.637.061 1.984-.505l-1.53 3.137c-.34.666-.32 1.264.15 1.572.392.258.936.218 1.38-.321l3.474-4.65 1.538-2.373c1.074-1.659.543-3.912-1.149-4.873l-4.045-2.3c-1.788-1.016-4.03-.121-4.695 1.873z" fill="#F8AF78"/><path fill-rule="evenodd" clip-rule="evenodd" d="M31.554 50.15c-1.653-.94-3.728-.114-4.342 1.731l-1.233 3.698-.003.008c-.192.477-.23.824-.17 1.085.059.251.218.465.513.658.21.137.421.115.65-.021.238-.142.463-.395.636-.651a2.82 2.82 0 00.07-.109l.953-1.717a.242.242 0 01.336-.094.26.26 0 01.091.348l-.955 1.722a2.542 2.542 0 00-.365 1.022c-.031.321.034.574.212.73.135.118.305.202.484.244.21.05.46.023.693-.074a1.14 1.14 0 00.537-.43l1.034-1.752a.242.242 0 01.34-.085.26.26 0 01.082.351l-1.036 1.753-.002.003-.014.023c-.17.28-.334.592-.375.877a.685.685 0 00.032.363c.042.102.123.21.28.311l.01.008.011.008c.254.207.561.208.874.074.318-.135.601-.397.748-.636l.838-1.426a.242.242 0 01.339-.085.26.26 0 01.083.35l-.84 1.428v.002l-.002.002a1.61 1.61 0 01-.017.028l.004.002-1.505 3.088-.001.002c-.157.307-.218.574-.202.781a.565.565 0 00.264.457.67.67 0 00.495.102c.175-.032.372-.14.562-.37l3.466-4.637 1.533-2.366c.993-1.534.502-3.619-1.063-4.508l-4.045-2.299zm-.445 10.546a1.185 1.185 0 01-.023.01c-.416.177-.922.21-1.357-.137a1.179 1.179 0 01-.461-.538 1.21 1.21 0 01-.066-.636 1.68 1.68 0 01.032-.162 1.62 1.62 0 01-.913.069 1.624 1.624 0 01-.693-.353c-.354-.31-.423-.767-.383-1.171l.005-.049a1.4 1.4 0 01-.035.022c-.335.2-.751.278-1.16.01-.37-.242-.632-.555-.728-.971-.094-.406-.019-.867.19-1.392l1.228-3.683c.714-2.144 3.125-3.105 5.047-2.013l4.045 2.3c1.818 1.033 2.39 3.455 1.235 5.238l-1.542 2.38-3.484 4.662-.004.004c-.252.307-.548.488-.853.545a1.148 1.148 0 01-.847-.173 1.077 1.077 0 01-.492-.848c-.026-.335.074-.699.256-1.057l1.003-2.057z" fill="#000"/><path d="M69.046 60.551l-1.525 2.801a2.158 2.158 0 01-2.1 1.136c-.503-.049-.805-.603-.584-1.074l1.895-4.033c.188-.399.478-.74.754-1.08.94-1.162 2.21-3.527 5.997-3.088 2.85.33 6.54 3.361 5.125 7.316-1.132 3.163-3.321 3.546-4.274 3.342-.842.709-1.847.935-2.384.947l-1.778 3.135a.89.89 0 01-1.377.235.986.986 0 01-.219-1.154c1.565-3.308 3.155-8.375 2.268-8.76-.949-.41-1.454-.065-1.798.277z" fill="#F8AF78"/><path fill-rule="evenodd" clip-rule="evenodd" d="M69.272 55.95c.96-.72 2.286-1.217 4.238-.99 1.488.172 3.179 1.043 4.32 2.383 1.15 1.35 1.755 3.192 1.01 5.274-1.134 3.167-3.324 3.699-4.44 3.525-.83.662-1.734.898-2.306.928l-1.71 3.012a1.133 1.133 0 01-1.75.299 1.248 1.248 0 01-.28-1.459 36.898 36.898 0 002.038-5.435c.24-.858.4-1.612.446-2.169.023-.28.017-.493-.014-.638a.452.452 0 00-.05-.142c-.014-.023-.024-.027-.025-.028-.436-.189-.743-.194-.968-.133a1.237 1.237 0 00-.538.333l-1.507 2.767a2.402 2.402 0 01-2.337 1.265c-.676-.065-1.08-.808-.784-1.44l1.896-4.032c.186-.397.465-.739.716-1.048l.07-.086c.096-.119.2-.255.31-.404.407-.538.927-1.228 1.665-1.782zm3.101 10.575c.5-.085 1.18-.326 1.805-.852.4-.337.78-.792 1.073-1.4a.243.243 0 01.331-.114.259.259 0 01.11.342c-.22.458-.486.84-.775 1.157.988-.05 2.559-.7 3.46-3.218.67-1.873.137-3.523-.917-4.76-1.062-1.246-2.64-2.056-4.004-2.214-1.834-.212-3.037.254-3.894.897-.675.507-1.138 1.119-1.54 1.652-.12.158-.234.31-.347.449l-.064.079c-.259.319-.498.613-.656.95l-1.896 4.032c-.146.311.053.677.386.71a1.913 1.913 0 001.86-1.008l1.544-2.833.026-.026c.185-.184.434-.39.781-.485.351-.094.77-.066 1.283.156.222.097.323.32.367.532.046.219.049.49.023.791-.05.605-.22 1.397-.463 2.267a37.427 37.427 0 01-2.068 5.518.726.726 0 00.159.848.648.648 0 001.002-.171l1.775-3.129 1.874-3.769a.243.243 0 01.332-.11.26.26 0 01.107.343l-1.674 3.366zM47.109 31.14c.127-.18.24-.34.33-.48l.45.176c-.084.656.218 1.304.812 2.003.574.676 1.38 1.355 2.25 2.088l.085.071c.895.754 1.847 1.562 2.628 2.46.782.898 1.409 1.903 1.636 3.057.126.636.198 1.96.234 3.675.035 1.724.033 3.868.002 6.163-.06 4.59-.233 9.788-.44 13.445l-.492-.03c.206-3.648.378-8.839.439-13.422.03-2.292.032-4.43-.003-6.146-.035-1.725-.108-3-.223-3.583-.204-1.03-.769-1.955-1.52-2.818s-1.673-1.648-2.573-2.405l-.101-.086c-.857-.72-1.691-1.423-2.293-2.133-.435-.512-.77-1.052-.895-1.628-.601.855-1.392 2.009-1.602 3.445-.253 1.716.33 3.895 3.377 6.417l1.879-3.983.413 3.818c.724.281 1.406 1.079 1.925 2.568.561 1.607.953 4.072.995 7.728.016 1.349-.02 3.813-.057 6.236l-.01.669c-.034 2.187-.066 4.252-.06 5.337l-.494.003c-.005-1.092.027-3.162.06-5.346.004-.223.008-.447.01-.671.038-2.426.073-4.882.058-6.222-.042-3.63-.432-6.03-.966-7.561-.536-1.538-1.199-2.147-1.754-2.303l-.161-.046-.26-2.407-1.401 2.97-.24-.192c-3.346-2.677-4.096-5.091-3.802-7.092.237-1.614 1.159-2.918 1.764-3.774z" fill="#000"/><path fill-rule="evenodd" clip-rule="evenodd" d="M61.496 31.346a13.218 13.218 0 01-.369-.53l-.452.142c0 .524-.249 1.048-.7 1.603-.45.556-1.076 1.114-1.782 1.707-.174.147-.353.295-.534.446-1.276 1.057-2.693 2.233-3.594 3.646l.412.281c.855-1.34 2.204-2.461 3.486-3.526l.541-.45c.706-.594 1.366-1.18 1.85-1.776.328-.405.586-.828.718-1.277l.033.046.128.179c.194.273.402.573.6.9.398.658.752 1.418.877 2.278.24 1.648-.352 3.763-3.403 6.285l-1.878-3.983-.414 3.817c-.712.273-1.458 1.033-1.977 2.473l.462.178c.526-1.458 1.255-2.057 1.808-2.212l.161-.046.261-2.407 1.4 2.97.24-.192c3.342-2.674 4.11-5.021 3.828-6.96-.14-.954-.53-1.782-.946-2.47a14.948 14.948 0 00-.622-.934l-.134-.188z" fill="#000"/><path d="M63.743 16.53c.084-1.043-.848-1.087-1.324-.978-.33 1.855-.866 5.56-.378 5.543.61-.022 1.156-.196 1.26-1.478.106-1.283.337-1.783.442-3.087z" fill="#F8AF78"/><path fill-rule="evenodd" clip-rule="evenodd" d="M63.39 15.375c-.348-.158-.76-.133-1.024-.072l-.16.036-.03.167a50.164 50.164 0 00-.498 3.493c-.057.581-.09 1.115-.077 1.507.007.193.025.371.067.508a.57.57 0 00.108.21.34.34 0 00.273.126c.318-.012.681-.062.975-.33.294-.27.469-.711.524-1.382.051-.623.132-1.056.215-1.5l.002-.008c.084-.45.17-.912.224-1.579.025-.3-.023-.553-.136-.757a.981.981 0 00-.462-.419zm.035.674c.053.094.09.238.073.46a13.288 13.288 0 01-.217 1.524l-.003.011c-.083.446-.169.9-.222 1.551-.05.612-.201.898-.359 1.042-.14.128-.323.18-.566.197a1.832 1.832 0 01-.037-.346c-.012-.356.018-.861.075-1.437.106-1.075.302-2.359.462-3.276.185-.02.396-.007.562.067.102.047.18.113.232.207z" fill="#000"/><path d="M44.324 16.582c-.084-1.044.848-1.087 1.325-.979.33 1.855.866 5.56.378 5.543-.61-.021-1.156-.195-1.261-1.478-.105-1.282-.337-1.782-.442-3.086z" fill="#F8AF78"/><path fill-rule="evenodd" clip-rule="evenodd" d="M44.678 15.426c.348-.158.76-.133 1.024-.072l.16.036.03.167c.165.93.383 2.328.498 3.493.058.581.091 1.115.077 1.507a2.093 2.093 0 01-.067.508.583.583 0 01-.108.21.34.34 0 01-.273.126c-.317-.012-.681-.062-.975-.33-.294-.27-.468-.71-.523-1.382-.052-.623-.133-1.055-.216-1.5l-.002-.008a13.96 13.96 0 01-.224-1.579c-.024-.3.023-.553.136-.756a.982.982 0 01.463-.42zm-.035.674c-.052.094-.09.238-.072.46.051.638.133 1.077.217 1.524l.002.012c.084.445.169.9.222 1.55.05.612.202.898.36 1.042.14.128.323.18.565.198.018-.073.032-.188.037-.347.013-.356-.018-.861-.074-1.437a49.04 49.04 0 00-.462-3.276 1.124 1.124 0 00-.562.068.483.483 0 00-.233.206z" fill="#000"/><path d="M46.025 4.603c-1.009 3.109-1.009 6.934-.862 9.217.505 2.869.694 11.02.694 11.02.51 4.623 5.796 6.5 8.305 6.869 5.255-.609 8.03-4.434 8.199-6.869.168-2.434.778-10.15.778-12.803 0-2.121-.575-4.144-.862-4.89.572.504.91 1.862 1.009 2.477.185-3.512-1.619-4.347-2.544-4.325-.147-1.696-.988-2.913-2.439-3.456-1.16-.435-2.726-.573-3.364-.587 1.127-.122 2.334.05 2.797.152-3.07-1.435-6.644-.217-9.02.848-1.9.852-2.586 2.876-2.69 3.782V4.603z" fill="#000"/><path d="M47.692 7.886c-1.648 1.53-1.808 7.042-1.682 9.607 0 .732.151 2.478 1.01 4.652.857 2.173 2.389 2.1 2.9 1.739.74-.922 1.83-1.319 2.397-1.478.151.365.694.297.946.217.858.365 1.773.152 2.124 0 .538.174.84-.073.925-.217 1.156.108 1.471 1.173 2.859 1.63 1.388.456 2.649-2.022 2.964-3.652.316-1.63.232-7.02-.294-10.216-.42-2.556-1.76-3.253-2.376-3.282-.378.333-2.026.973-5.592.87-4.457-.131-4.12-1.783-6.181.13z" fill="#F8AF78"/><path d="M47.26 13.421c-.27-.102-.414-.449-.468-.67a.126.126 0 01.052-.133c1.914-1.35 4.288-.803 5.31-.33.042.02.07.06.074.105.035.53-.34.868-.59 1.002a.13.13 0 01-.133-.01c-1.677-1.102-3.948-.04-4.205.039a.062.062 0 01-.04-.003zm13.842.009c.269-.102.413-.45.467-.67a.127.127 0 00-.052-.133c-1.915-1.35-4.288-.803-5.31-.33a.125.125 0 00-.074.105c-.035.53.34.868.59 1.002a.13.13 0 00.133-.01c1.676-1.103 3.948-.04 4.205.039a.063.063 0 00.04-.003z" fill="#000"/><path fill-rule="evenodd" clip-rule="evenodd" d="M44.568 15.428V13.95c.862-.188 3.188-.509 5.593-.283 1.558.147 2.049.334 2.433.48.356.137.62.238 1.561.238.942 0 1.206-.101 1.562-.237.383-.147.874-.334 2.433-.48 2.405-.227 4.73.094 5.592.282v1.478c-.252.283-.782.96-.883 1.413-.126.565-.694 2.934-4.33 2.739-.863-.022-2.696-.352-3.133-1.5-.105-.273-.194-.522-.275-.746-.343-.952-.523-1.454-.966-1.471-.442.017-.623.52-.966 1.47-.08.225-.17.474-.274.747-.438 1.148-2.27 1.478-3.133 1.5-3.637.195-4.204-2.174-4.33-2.74-.102-.451-.631-1.13-.884-1.412zm1.493 1.63a4.424 4.424 0 010-1.803c.39-1.308 2.74-1.136 4.338-1.018.209.015.405.03.582.04 1.731.098 2.165 1.456 1.745 2.782-.42 1.326-.988 2.347-3.595 2.152-2.607-.196-2.86-1.152-3.07-2.152zm16.266-1.803a4.43 4.43 0 010 1.804c-.21 1-.463 1.956-3.07 2.152-2.607.195-3.174-.826-3.595-2.152-.42-1.326.013-2.684 1.745-2.783.177-.01.373-.024.582-.04 1.599-.117 3.947-.289 4.338 1.019z" fill="#000"/><path d="M51.584 24.442c1.309.319 2.28.37 2.573.37.292 0 1.266-.051 2.577-.372a.041.041 0 01.051.043c-.036.775-.71 2.249-2.628 2.249-1.916 0-2.59-1.47-2.629-2.246a.044.044 0 01.056-.044z" fill="#FF1010"/><path d="M51.584 24.442c1.309.319 2.28.37 2.573.37.292 0 1.266-.051 2.577-.372a.041.041 0 01.051.043c-.01.209-.065.468-.18.736a.043.043 0 01-.017.02c-.216.125-.981.362-2.431.362-1.45 0-2.216-.237-2.431-.362a.042.042 0 01-.018-.02 2.193 2.193 0 01-.18-.733.045.045 0 01.056-.044z" fill="#fff"/><ellipse cx="49.529" cy="16.277" rx=".862" ry=".891" fill="#000"/><ellipse cx="49.761" cy="16.08" rx=".294" ry=".305" fill="#fff"/><ellipse cx="58.822" cy="16.276" rx=".862" ry=".891" fill="#000"/><ellipse cx="59.053" cy="16.08" rx=".294" ry=".305" fill="#fff"/><path d="M62.87 65.107c.428 0 .798.3.887.72l1.33 6.297a.906.906 0 01-.886 1.094H45.213a.906.906 0 01-.89-1.078l1.21-6.297a.906.906 0 01.89-.736H62.87z" fill="#000"/><path d="M62.927 65.743a.44.44 0 01.43.35l1.26 5.96a.44.44 0 01-.431.53H45.391a.44.44 0 01-.432-.523l1.157-5.96a.44.44 0 01.432-.357h16.379z" fill="#fff"/><path d="M61.627 66.021c.134 0 .25.094.277.226l1.166 5.644a.283.283 0 01-.278.341h-15.4a.283.283 0 01-.279-.338l1.103-5.644a.283.283 0 01.278-.229h13.133zm-15.025 2.302c.22 0 .398.179.398.399v.028a.399.399 0 11-.797 0v-.028c0-.22.178-.399.399-.399z" fill="#000"/><path d="M107.347 42.374l-.916-3.553h-7.713l-.916 3.553h-8.21l8.515-27.634h8.935l8.514 27.634h-8.209zm-6.987-9.87h4.429l-2.215-8.487-2.214 8.488zm32.805 9.83l-4.239-8.685h-1.909v8.685h-7.636V14.7h10.691c2.927 0 5.345.895 7.254 2.685 1.91 1.763 2.864 4.105 2.864 7.027 0 1.631-.369 3.105-1.107 4.421a8.518 8.518 0 01-3.017 3.198l5.27 10.303h-8.171zm-6.148-20.37v5.132h2.902c.815.026 1.451-.184 1.909-.631.484-.448.726-1.08.726-1.895 0-.816-.242-1.448-.726-1.895-.458-.474-1.094-.71-1.909-.71h-2.902zm32.303 20.37l-4.239-8.685h-1.909v8.685h-7.636V14.7h10.691c2.927 0 5.345.895 7.254 2.685 1.91 1.763 2.864 4.105 2.864 7.027 0 1.631-.369 3.105-1.107 4.421a8.518 8.518 0 01-3.017 3.198l5.27 10.303h-8.171zm-6.148-20.37v5.132h2.902c.815.026 1.451-.184 1.909-.631.484-.448.726-1.08.726-1.895 0-.816-.242-1.448-.726-1.895-.458-.474-1.094-.71-1.909-.71h-2.902zm41.399 16.896c-2.724 2.764-6.071 4.145-10.042 4.145s-7.331-1.381-10.08-4.145c-2.724-2.79-4.086-6.224-4.086-10.303 0-4.08 1.362-7.5 4.086-10.264 2.749-2.79 6.109-4.185 10.08-4.185s7.318 1.395 10.042 4.185c2.749 2.763 4.124 6.184 4.124 10.264 0 4.08-1.375 7.514-4.124 10.303zm-14.738-5.487c1.247 1.263 2.812 1.895 4.696 1.895s3.436-.632 4.658-1.895c1.248-1.29 1.871-2.895 1.871-4.816 0-1.921-.623-3.514-1.871-4.777-1.222-1.29-2.774-1.934-4.658-1.934-1.884 0-3.449.645-4.696 1.934-1.222 1.263-1.833 2.856-1.833 4.777 0 1.921.611 3.526 1.833 4.816zm38.525-18.633h7.637v27.634h-6.109l-8.4-12.633v12.633h-7.637V14.74h6.109l8.4 12.632V14.74z" fill="#E2001A"/><rect x="89.579" y="47.553" width="136.421" height="12.401" rx="6.201" fill="#276CAA"/><path d="M101.788 57.102c-.613 0-1.134-.144-1.564-.433a2.27 2.27 0 01-.891-1.184l.9-.545c.255.74.782 1.109 1.582 1.109.394 0 .688-.078.882-.235.2-.163.3-.373.3-.63 0-.27-.106-.473-.318-.61-.213-.145-.588-.301-1.128-.47a7.5 7.5 0 01-.736-.264 3.698 3.698 0 01-.6-.338 1.436 1.436 0 01-.464-.555 1.796 1.796 0 01-.154-.77c0-.583.2-1.044.6-1.382.4-.345.881-.517 1.445-.517.509 0 .955.128 1.337.385.381.257.675.611.881 1.062l-.881.527c-.267-.614-.713-.921-1.337-.921-.303 0-.545.075-.727.225a.714.714 0 00-.273.592c0 .245.091.439.273.583.188.138.524.285 1.009.442.242.081.418.144.527.188.115.037.273.1.473.188.206.087.361.175.464.263.103.088.212.197.327.329.121.132.206.282.254.451.049.17.073.36.073.574 0 .595-.209 1.068-.627 1.419-.412.344-.955.517-1.627.517zm7.792-1.156h2.819v1.034h-3.864V50.4h3.818v1.034h-2.773v1.71h2.546v1.025h-2.546v1.777zm11.04 1.034l-1.346-2.397h-1.236v2.397h-1.046V50.4h2.546a1.92 1.92 0 011.445.62c.4.408.6.906.6 1.495 0 .42-.118.805-.354 1.156a2.002 2.002 0 01-.91.752l1.446 2.556h-1.145zm-2.582-5.565v2.2h1.5a.924.924 0 00.709-.32c.194-.213.291-.473.291-.78 0-.307-.097-.567-.291-.78a.924.924 0 00-.709-.32h-1.5zm9.695 5.565l-2.209-6.58h1.146l1.691 5.273 1.7-5.273h1.136l-2.209 6.58h-1.255zm7.78-6.58h1.046v6.58h-1.046V50.4zm8.963 6.702c-.957 0-1.751-.326-2.382-.978-.63-.658-.945-1.47-.945-2.434 0-.965.315-1.774.945-2.425.631-.658 1.425-.987 2.382-.987.576 0 1.106.14 1.591.423.491.282.873.664 1.146 1.146l-.909.546a1.877 1.877 0 00-.746-.771 2.05 2.05 0 00-1.082-.291c-.679 0-1.23.222-1.654.667-.419.445-.628 1.009-.628 1.692s.209 1.247.628 1.692c.424.445.975.667 1.654.667.4 0 .764-.094 1.091-.282.327-.194.573-.454.737-.78l.909.536a3.017 3.017 0 01-1.137 1.156 3.126 3.126 0 01-1.6.423zm8.287-1.156h2.818v1.034h-3.863V50.4h3.818v1.034h-2.773v1.71h2.546v1.025h-2.546v1.777zm16.33 1.156c-.957 0-1.751-.326-2.382-.978-.63-.658-.945-1.47-.945-2.434 0-.965.315-1.774.945-2.425.631-.658 1.425-.987 2.382-.987.576 0 1.106.14 1.591.423.491.282.873.664 1.146 1.146l-.91.546a1.868 1.868 0 00-.745-.771 2.05 2.05 0 00-1.082-.291c-.679 0-1.23.222-1.654.667-.419.445-.628 1.009-.628 1.692s.209 1.247.628 1.692c.424.445.975.667 1.654.667.4 0 .764-.094 1.091-.282.327-.194.573-.454.736-.78l.91.536a3.017 3.017 0 01-1.137 1.156 3.126 3.126 0 01-1.6.423zm8.287-1.156h2.818v1.034h-3.863V50.4h3.818v1.034h-2.773v1.71h2.546v1.025h-2.546v1.777zm11.23-5.546h1.046v6.58h-.819l-3-4.465v4.465h-1.045V50.4h.818l3 4.465V50.4zm10.089 0v1.034h-1.791v5.546h-1.045v-5.546h-1.8V50.4h4.636zm5.455 5.546h2.819v1.034h-3.864V50.4h3.818v1.034h-2.773v1.71h2.546v1.025h-2.546v1.777zm11.039 1.034l-1.345-2.397h-1.236v2.397h-1.046V50.4h2.546a1.92 1.92 0 011.445.62c.4.408.6.906.6 1.495 0 .42-.118.805-.354 1.156a2.002 2.002 0 01-.91.752l1.446 2.556h-1.146zm-2.581-5.565v2.2h1.5a.924.924 0 00.709-.32c.194-.213.291-.473.291-.78 0-.307-.097-.567-.291-.78a.924.924 0 00-.709-.32h-1.5z" fill="#fff"/><path d="M96.712 67.6v1.056h-2.484V76h-1.104v-7.344h-2.472V67.6h6.06zm9.048 7.284c-.84.848-1.868 1.272-3.084 1.272s-2.244-.424-3.084-1.272c-.84-.848-1.26-1.876-1.26-3.084 0-1.216.42-2.244 1.26-3.084.84-.848 1.868-1.272 3.084-1.272s2.244.424 3.084 1.272c.848.84 1.272 1.868 1.272 3.084 0 1.208-.424 2.236-1.272 3.084zm-5.4-.756c.624.624 1.396.936 2.316.936.92 0 1.688-.312 2.304-.936.624-.632.936-1.408.936-2.328 0-.928-.312-1.704-.936-2.328-.616-.632-1.384-.948-2.304-.948-.92 0-1.692.316-2.316.948-.616.624-.924 1.4-.924 2.328 0 .92.308 1.696.924 2.328zm14.349-6.528v1.056h-2.484V76h-1.104v-7.344h-2.472V67.6h6.06zm2.544 0h1.116V76h-1.116v-8.4zm13.778 8.4l-1.884-3.216h-1.98V76h-1.116v-8.4h3.36c.72 0 1.336.256 1.848.768a2.48 2.48 0 01.768 1.836c0 .544-.164 1.04-.492 1.488a2.57 2.57 0 01-1.248.948l1.98 3.36h-1.236zm-3.864-7.356v3.132h2.244c.416 0 .768-.152 1.056-.456.296-.312.444-.684.444-1.116 0-.432-.148-.8-.444-1.104a1.399 1.399 0 00-1.056-.456h-2.244zm8.776 6.3h3.9V76h-5.016v-8.4h4.956v1.056h-3.84v2.58h3.54v1.044h-3.54v2.664zm9.736-7.344c.776 0 1.42.26 1.932.78.52.512.78 1.152.78 1.92 0 .76-.26 1.4-.78 1.92-.512.52-1.156.78-1.932.78h-1.932v3h-1.116v-8.4h3.048zm0 4.356c.464 0 .848-.156 1.152-.468.304-.32.456-.716.456-1.188 0-.48-.152-.876-.456-1.188-.304-.312-.688-.468-1.152-.468h-1.932v3.312h1.932zM155.825 76l-.684-1.884h-3.78L150.677 76h-1.188l3.132-8.4h1.26l3.132 8.4h-1.188zm-4.08-2.928h3.012l-1.512-4.14-1.5 4.14zM164.424 76l-1.884-3.216h-1.98V76h-1.116v-8.4h3.36c.72 0 1.336.256 1.848.768a2.48 2.48 0 01.768 1.836c0 .544-.164 1.04-.492 1.488a2.57 2.57 0 01-1.248.948l1.98 3.36h-1.236zm-3.864-7.356v3.132h2.244c.416 0 .768-.152 1.056-.456.296-.312.444-.684.444-1.116 0-.432-.148-.8-.444-1.104a1.399 1.399 0 00-1.056-.456h-2.244zM173.752 76l-.684-1.884h-3.78L168.604 76h-1.188l3.132-8.4h1.26l3.132 8.4h-1.188zm-4.08-2.928h3.012l-1.512-4.14-1.5 4.14zm13.255 1.872h3.624V76h-4.74v-8.4h1.116v7.344zM194.877 76l-.684-1.884h-3.78L189.729 76h-1.188l3.132-8.4h1.26l3.132 8.4h-1.188zm-4.08-2.928h3.012l-1.512-4.14-1.5 4.14zm17.359-5.472h1.116V76h-.9l-4.32-6.276V76h-1.116v-8.4h.9l4.32 6.264V67.6zm11.337 7.284c-.84.848-1.868 1.272-3.084 1.272s-2.244-.424-3.084-1.272c-.84-.848-1.26-1.876-1.26-3.084 0-1.216.42-2.244 1.26-3.084.84-.848 1.868-1.272 3.084-1.272s2.244.424 3.084 1.272c.848.84 1.272 1.868 1.272 3.084 0 1.208-.424 2.236-1.272 3.084zm-5.4-.756c.624.624 1.396.936 2.316.936.92 0 1.688-.312 2.304-.936.624-.632.936-1.408.936-2.328 0-.928-.312-1.704-.936-2.328-.616-.632-1.384-.948-2.304-.948-.92 0-1.692.316-2.316.948-.616.624-.924 1.4-.924 2.328 0 .92.308 1.696.924 2.328zm9.453-6.528h1.116V76h-1.116v-8.4z" fill="#276CAA"/></svg>