<svg width="16" height="16" fill="none" xmlns="http://www.w3.org/2000/svg"><path d="M15.234 12.171v2.294a1.527 1.527 0 01-1.04 1.454 1.536 1.536 0 01-.63.075 15.177 15.177 0 01-6.61-2.347A14.922 14.922 0 012.358 9.06 15.111 15.111 0 01.007 2.43 1.526 1.526 0 01.913.895a1.53 1.53 0 01.618-.13h2.298A1.534 1.534 0 015.36 2.079a9.83 9.83 0 00.536 2.149 1.526 1.526 0 01-.345 1.613l-.972.97A12.244 12.244 0 009.175 11.4l.973-.97a1.533 1.533 0 011.617-.345 9.845 9.845 0 002.152.535 1.532 1.532 0 011.317 1.552z" fill="#E2001A"/></svg>