<svg width="30" height="20" fill="none" xmlns="http://www.w3.org/2000/svg"><path d="M22.786 19.969c1.744.156 3.25-.273 4.518-1.285 1.19-1.09 1.983-2.49 2.379-4.204.317-1.479.396-2.997.238-4.554-.238-1.635-.753-3.114-1.546-4.437-.872-1.402-2.061-2.608-3.568-3.62C23.301.855 21.398.233 19.1 0l-.832 2.92c1.189.31 2.457.856 3.805 1.634 1.348.779 2.22 2.102 2.616 3.97l-1.784-.35c-1.823-.077-3.369.429-4.637 1.518-1.348 1.09-2.022 2.453-2.022 4.088 0 1.635.634 3.075 1.903 4.32 1.268 1.168 2.814 1.791 4.638 1.869zm-15.698 0c1.824.156 3.33-.273 4.52-1.285 1.188-1.09 1.981-2.49 2.378-4.204.396-1.479.475-2.997.237-4.554-.237-1.635-.753-3.114-1.546-4.437-.872-1.402-2.06-2.608-3.567-3.62C7.604.855 5.74.233 3.52 0l-.95 2.92c1.189.31 2.497.856 3.924 1.634 1.347.779 2.22 2.102 2.616 3.97a3.554 3.554 0 00-.833-.116 23.605 23.605 0 00-1.07-.234c-1.823-.077-3.37.429-4.638 1.518C1.301 10.782.667 12.145.667 13.78c0 1.635.634 3.075 1.902 4.32 1.19 1.168 2.696 1.791 4.52 1.869z" fill="#3D8AFF"/></svg>