<svg width="30" height="20" fill="none" xmlns="http://www.w3.org/2000/svg"><path d="M7.214 19.969c-1.744.156-3.25-.273-4.519-1.285-1.189-1.09-1.981-2.49-2.378-4.204A14.559 14.559 0 01.08 9.926c.238-1.635.753-3.114 1.546-4.437.872-1.402 2.061-2.608 3.568-3.62C6.699.855 8.602.233 10.9 0l.832 2.92c-1.189.31-2.457.856-3.805 1.634-1.348.779-2.22 2.102-2.616 3.97l1.784-.35c1.823-.077 3.369.429 4.637 1.518 1.348 1.09 2.022 2.453 2.022 4.088 0 1.635-.634 3.075-1.903 4.32-1.268 1.168-2.814 1.791-4.638 1.869zm15.698 0c-1.824.156-3.33-.273-4.52-1.285-1.188-1.09-1.981-2.49-2.378-4.204a10.994 10.994 0 01-.237-4.554c.237-1.635.753-3.114 1.546-4.437.872-1.402 2.06-2.608 3.567-3.62C22.396.855 24.26.233 26.48 0l.95 2.92c-1.189.31-2.497.856-3.924 1.634-1.347.779-2.22 2.102-2.616 3.97.317-.077.595-.116.832-.116.318-.078.674-.156 1.07-.234 1.824-.077 3.37.429 4.639 1.518 1.268 1.09 1.902 2.453 1.902 4.088 0 1.635-.634 3.075-1.902 4.32-1.19 1.168-2.696 1.791-4.52 1.869z" fill="#3D8AFF"/></svg>