<svg width="190" height="30" fill="none" xmlns="http://www.w3.org/2000/svg"><path d="M29.962 10.843a1.107 1.107 0 00-1.028-.772l-9.686-.214L16.034.73C15.905.3 15.477 0 15.005 0c-.471 0-.9.3-1.028.729l-3.215 9.128-9.685.214c-.472 0-.9.3-1.029.772-.128.428 0 .943.386 1.243l7.714 5.871-2.785 9.257c-.13.472.042.943.428 1.2s.9.3 1.286 0l7.928-5.485 7.972 5.485c.386.257.9.257 1.285 0a1.1 1.1 0 00.43-1.2l-2.83-9.257 7.715-5.871c.385-.3.514-.772.385-1.243zm40.006 0a1.107 1.107 0 00-1.029-.772l-9.685-.214L56.039.73C55.911.3 55.482 0 55.011 0c-.472 0-.9.3-1.029.729l-3.214 9.128-9.686.214c-.471 0-.9.3-1.028.772-.129.428 0 .943.385 1.243l7.715 5.871-2.786 9.257c-.129.472.043.943.428 1.2.386.257.9.3 1.286 0l7.929-5.485 7.971 5.485c.386.257.9.257 1.286 0a1.1 1.1 0 00.428-1.2l-2.828-9.257 7.714-5.871c.386-.3.514-.772.386-1.243zm40 0a1.108 1.108 0 00-1.029-.772l-9.685-.214L96.039.73C95.911.3 95.482 0 95.011 0c-.472 0-.9.3-1.029.729l-3.214 9.128-9.686.214c-.471 0-.9.3-1.028.772-.129.428 0 .943.385 1.243l7.715 5.871-2.786 9.257c-.129.472.043.943.428 1.2.386.257.9.3 1.286 0l7.929-5.485 7.971 5.485c.386.257.9.257 1.286 0s.557-.771.428-1.2l-2.828-9.257 7.714-5.871c.386-.3.514-.772.386-1.243zm40 0a1.108 1.108 0 00-1.029-.772l-9.685-.214L136.039.73c-.128-.43-.557-.73-1.028-.73-.472 0-.9.3-1.029.729l-3.214 9.128-9.686.214c-.471 0-.9.3-1.028.772-.129.428 0 .943.385 1.243l7.715 5.871-2.786 9.257c-.129.472.043.943.428 1.2.386.257.9.3 1.286 0l7.929-5.485 7.971 5.485c.386.257.9.257 1.286 0s.557-.771.428-1.2l-2.828-9.257 7.714-5.871c.386-.3.514-.772.386-1.243zm39.984.62c-.129-.44-.557-.791-1.028-.791l-9.64-.22-3.256-9.367c-.171-.44-.557-.748-1.028-.748V.293a.997.997 0 00-.685.308.92.92 0 00-.343.484l-3.213 9.323-9.64.22c-.257 0-.514.131-.728.307-.171.132-.257.308-.343.528-.128.44 0 .968.386 1.275l7.711 6.025-2.784 9.5c-.129.483.042.967.428 1.23.214.132.428.22.643.22.214 0 .428-.088.642-.22L175 23.866l7.969 5.629c.171.131.428.22.642.22.214 0 .471-.089.643-.22.385-.264.557-.792.428-1.232l-2.827-9.499 7.711-6.025c.386-.307.514-.791.386-1.275zm-8.954 6.113l-.814.616.3.967 2.485 8.531-7.155-5.057-.814-.572V2.536l2.87 8.443.343.968.985.044 8.697.176-6.897 5.409z" fill="#FFD66B"/></svg>