<svg width="35" height="45" fill="none" xmlns="http://www.w3.org/2000/svg"><path d="M1.2 0h32.6c.9.3 1.2 1 1.2 1.9v41.2c0 1.3-.6 1.9-1.8 1.9H1.9C.6 45 0 44.4 0 43.1V1.9C0 1 .3.3 1.2 0z" fill="#005AAA"/><path d="M23.1 28.8H27c.9 0 1.6-.6 1.6-1.5s-.6-1.5-1.6-1.5h-7.7c-1 0-1.6.6-1.6 1.5s.6 1.5 1.7 1.5h3.7zm0-11.8h-3.8c-.2 0-.5 0-.7.1-.7.2-1.1.9-1 1.7.1.8.7 1.3 1.6 1.3h7.7c1 0 1.6-.6 1.7-1.5 0-.9-.6-1.5-1.7-1.5-1.2-.1-2.5-.1-3.8-.1zm0-5.9H27c.9 0 1.5-.6 1.6-1.5 0-.9-.6-1.5-1.6-1.5h-7.9c-.6 0-1.1.2-1.4.8-.6 1 .1 2.2 1.3 2.2h4.1zm0 23.6h-3.8c-.8 0-1.3.3-1.5.9-.4 1 .3 2 1.5 2.1h7.8c.6 0 1.1-.2 1.4-.8.6-1-.1-2.2-1.4-2.2h-4zM9.6 11.9c.4 0 .7-.1 1-.4l3.2-3.2c.6-.7.6-1.5 0-2.2-.6-.6-1.5-.6-2.2 0l-1.5 1.5c-.6.6-.6.6-1.1.1-.7-.6-1.5-.6-2.1 0-.6.6-.6 1.5 0 2.1.5.6 1.1 1.1 1.6 1.6.3.4.6.5 1.1.5zm-.1 26.6c.4 0 .8-.2 1.1-.5l3.1-3.1c.7-.7.7-1.6 0-2.2-.6-.6-1.5-.6-2.2.1l-1.6 1.6c-.5.5-.5.5-.9 0-.7-.7-1.5-.7-2.2-.1-.6.6-.6 1.5 0 2.2L8.3 38c.4.4.8.5 1.2.5zM7.9 16.2c-.6 0-1.1.3-1.4.9-.3.6-.2 1.2.3 1.6.5.6 1 1.1 1.6 1.6.7.7 1.5.7 2.2 0l3.1-3.1c.7-.7.7-1.6 0-2.2-.6-.6-1.5-.6-2.2.1l-1.7 1.7c-.3.3-.5.4-.8 0-.2-.4-.6-.7-1.1-.6zm1.6 13.4c.5 0 .8-.2 1.1-.5 1-1 2-2.1 3.1-3.1.7-.7.7-1.6.1-2.2-.6-.6-1.5-.6-2.2.1-.5.5-1 1-1.5 1.6-.5.5-.5.5-1 0-.7-.6-1.5-.6-2.1 0-.6.6-.6 1.5 0 2.2l1.6 1.6c.2.2.5.3.9.3z" fill="#FFD66B"/></svg>