<svg width="185" height="213" fill="none" xmlns="http://www.w3.org/2000/svg"><g filter="url(#filter0_dddddd_1008_476)"><path d="M104.089 19.028c-.366-4.772-2.588-7.763-4.548-10.402-1.816-2.443-3.383-4.553-3.383-7.666a.668.668 0 00-1.055-.542c-2.944 2.107-5.4 5.657-6.258 9.045-.596 2.359-.675 5.01-.686 6.761-2.719-.58-3.335-4.647-3.341-4.692a.67.67 0 00-.347-.494.663.663 0 00-.604-.011c-.143.069-3.5 1.774-3.695 8.584-.013.227-.014.454-.014.681 0 6.616 5.383 12 12 12h.035c6.6-.02 11.965-5.395 11.965-12 0-.332-.069-1.264-.069-1.264z" fill="#FF6B00"/></g><path d="M92.158 30.792c-3.309 0-6-2.876-6-6.41 0-.121-.001-.243.008-.392.04-1.49.322-2.508.632-3.185.58 1.25 1.617 2.399 3.301 2.399.553 0 1-.449 1-1.003 0-1.428.03-3.076.384-4.563.316-1.318 1.07-2.721 2.024-3.846.425 1.46 1.253 2.641 2.062 3.794 1.157 1.65 2.353 3.355 2.563 6.264.013.172.026.345.026.531 0 3.535-2.692 6.411-6 6.411z" fill="#FFD66B"/><defs><filter id="filter0_dddddd_1008_476" x=".158" y=".292" width="184" height="212" filterUnits="userSpaceOnUse" color-interpolation-filters="sRGB"><feFlood flood-opacity="0" result="BackgroundImageFix"/><feColorMatrix in="SourceAlpha" values="0 0 0 0 0 0 0 0 0 0 0 0 0 0 0 0 0 0 127 0" result="hardAlpha"/><feOffset dy="2.767"/><feGaussianBlur stdDeviation="1.107"/><feColorMatrix values="0 0 0 0 1 0 0 0 0 0.419608 0 0 0 0 0 0 0 0 0.0477948 0"/><feBlend in2="BackgroundImageFix" result="effect1_dropShadow_1008_476"/><feColorMatrix in="SourceAlpha" values="0 0 0 0 0 0 0 0 0 0 0 0 0 0 0 0 0 0 127 0" result="hardAlpha"/><feOffset dy="6.65"/><feGaussianBlur stdDeviation="2.66"/><feColorMatrix values="0 0 0 0 1 0 0 0 0 0.419608 0 0 0 0 0 0 0 0 0.0686618 0"/><feBlend in2="effect1_dropShadow_1008_476" result="effect2_dropShadow_1008_476"/><feColorMatrix in="SourceAlpha" values="0 0 0 0 0 0 0 0 0 0 0 0 0 0 0 0 0 0 127 0" result="hardAlpha"/><feOffset dy="12.522"/><feGaussianBlur stdDeviation="5.009"/><feColorMatrix values="0 0 0 0 1 0 0 0 0 0.419608 0 0 0 0 0 0 0 0 0.085 0"/><feBlend in2="effect2_dropShadow_1008_476" result="effect3_dropShadow_1008_476"/><feColorMatrix in="SourceAlpha" values="0 0 0 0 0 0 0 0 0 0 0 0 0 0 0 0 0 0 127 0" result="hardAlpha"/><feOffset dy="22.336"/><feGaussianBlur stdDeviation="8.935"/><feColorMatrix values="0 0 0 0 1 0 0 0 0 0.419608 0 0 0 0 0 0 0 0 0.101338 0"/><feBlend in2="effect3_dropShadow_1008_476" result="effect4_dropShadow_1008_476"/><feColorMatrix in="SourceAlpha" values="0 0 0 0 0 0 0 0 0 0 0 0 0 0 0 0 0 0 127 0" result="hardAlpha"/><feOffset dy="41.778"/><feGaussianBlur stdDeviation="16.711"/><feColorMatrix values="0 0 0 0 1 0 0 0 0 0.419608 0 0 0 0 0 0 0 0 0.122205 0"/><feBlend in2="effect4_dropShadow_1008_476" result="effect5_dropShadow_1008_476"/><feColorMatrix in="SourceAlpha" values="0 0 0 0 0 0 0 0 0 0 0 0 0 0 0 0 0 0 127 0" result="hardAlpha"/><feOffset dy="100"/><feGaussianBlur stdDeviation="40"/><feColorMatrix values="0 0 0 0 1 0 0 0 0 0.419608 0 0 0 0 0 0 0 0 0.17 0"/><feBlend in2="effect5_dropShadow_1008_476" result="effect6_dropShadow_1008_476"/><feBlend in="SourceGraphic" in2="effect6_dropShadow_1008_476" result="shape"/></filter></defs></svg>