<svg width="18" height="21" fill="none" xmlns="http://www.w3.org/2000/svg"><path fill-rule="evenodd" clip-rule="evenodd" d="M14.66 4.913c-1.12-.56-1.96-1.82-2.1-3.22 0-.28-.14-.56-.14-.84H9.06v13.44c0 1.54-1.26 2.8-2.8 2.8-.56 0-.98-.14-1.4-.28-.84-.42-1.54-1.4-1.54-2.52 0-1.54 1.26-2.8 2.94-2.8.28 0 .56 0 .84.14v-3.36c-.28 0-.56-.14-.84-.14-3.36 0-6.16 2.8-6.16 6.16 0 2.1 1.12 3.92 2.66 5.04.98.7 2.24 1.12 3.5 1.12 3.36 0 6.16-2.8 6.16-6.16v-7a6.201 6.201 0 004.62 1.54v-3.36c-.84.28-1.68 0-2.38-.56z" fill="#FFD66B"/></svg>