<svg width="21" height="15" fill="none" xmlns="http://www.w3.org/2000/svg"><path fill-rule="evenodd" clip-rule="evenodd" d="M4.48.933c1.96-.14 4.2-.28 6.02-.28 1.82 0 4.06.14 6.02.28 2.24.14 3.5.56 3.78 2.94.14 1.12.28 2.52.28 3.92 0 1.54-.14 2.94-.28 3.92-.28 2.38-1.54 2.66-3.78 2.94-1.96.14-4.2.28-6.02.28-1.82 0-4.06 0-6.02-.28-2.24-.14-3.5-.56-3.78-2.94-.14-.98-.14-2.52-.14-3.92 0-1.54.14-2.94.14-3.92.28-2.38 1.54-2.8 3.78-2.94z" fill="#FFD66B"/><path fill-rule="evenodd" clip-rule="evenodd" d="M8.54 4.713l5.18 3.08-5.18 3.08v-6.16z" fill="#005AAA"/></svg>